<svg width="40" height="40" viewBox="0 0 40 40" fill="none" xmlns="http://www.w3.org/2000/svg">
<rect width="39.5" height="39.5" fill="#FAF7FF"/>
<path d="M19.75 10C17.1641 10 14.6842 11.0272 12.8557 12.8557C11.0272 14.6842 10 17.1641 10 19.75C10 22.3359 11.0272 24.8158 12.8557 26.6443C14.6842 28.4728 17.1641 29.5 19.75 29.5C21.7666 29.5 23.8844 28.8925 25.4153 27.8753C25.4974 27.8208 25.5679 27.7506 25.6228 27.6688C25.6778 27.587 25.716 27.4952 25.7355 27.3986C25.755 27.302 25.7552 27.2026 25.7362 27.1059C25.7172 27.0092 25.6794 26.9172 25.6248 26.8352C25.5703 26.7531 25.5001 26.6826 25.4183 26.6277C25.3366 26.5727 25.2447 26.5344 25.1482 26.515C25.0516 26.4955 24.9521 26.4953 24.8554 26.5143C24.7587 26.5332 24.6667 26.5711 24.5847 26.6256C23.3125 27.4731 21.4572 28 19.75 28C18.1183 28 16.5233 27.5161 15.1665 26.6096C13.8098 25.7031 12.7524 24.4146 12.128 22.9071C11.5036 21.3996 11.3402 19.7408 11.6585 18.1405C11.9768 16.5402 12.7626 15.0702 13.9164 13.9164C15.0702 12.7626 16.5402 11.9768 18.1405 11.6585C19.7408 11.3402 21.3996 11.5036 22.9071 12.128C24.4146 12.7524 25.7031 13.8098 26.6096 15.1665C27.5161 16.5233 28 18.1183 28 19.75C28 22.2297 26.98 22.75 26.125 22.75C25.27 22.75 24.25 22.2297 24.25 19.75V16C24.25 15.8011 24.171 15.6103 24.0303 15.4697C23.8897 15.329 23.6989 15.25 23.5 15.25C23.3011 15.25 23.1103 15.329 22.9697 15.4697C22.829 15.6103 22.75 15.8011 22.75 16V16.3994C22.077 15.7959 21.2378 15.4092 20.3418 15.2895C19.4458 15.1698 18.5345 15.3228 17.7267 15.7284C16.9188 16.1341 16.2519 16.7736 15.8127 17.5637C15.3736 18.3538 15.1826 19.2579 15.2646 20.1581C15.3466 21.0583 15.6978 21.913 16.2725 22.6108C16.8472 23.3085 17.6187 23.817 18.4865 24.07C19.3543 24.323 20.2782 24.3088 21.1379 24.0292C21.9975 23.7496 22.753 23.2176 23.3059 22.5025C23.8684 23.6275 24.8387 24.25 26.125 24.25C28.2381 24.25 29.5 22.5681 29.5 19.75C29.4973 17.165 28.4692 14.6866 26.6413 12.8587C24.8134 11.0308 22.335 10.0027 19.75 10ZM19.75 22.75C19.1567 22.75 18.5766 22.5741 18.0833 22.2444C17.5899 21.9148 17.2054 21.4462 16.9784 20.8981C16.7513 20.3499 16.6919 19.7467 16.8076 19.1647C16.9234 18.5828 17.2091 18.0482 17.6287 17.6287C18.0482 17.2091 18.5828 16.9234 19.1647 16.8076C19.7467 16.6919 20.3499 16.7513 20.8981 16.9784C21.4462 17.2054 21.9148 17.5899 22.2444 18.0833C22.5741 18.5766 22.75 19.1567 22.75 19.75C22.75 20.5456 22.4339 21.3087 21.8713 21.8713C21.3087 22.4339 20.5456 22.75 19.75 22.75Z" fill="black"/>
</svg>
