<svg width="144" height="144" viewBox="0 0 144 144" fill="none" xmlns="http://www.w3.org/2000/svg">
<g clip-path="url(#clip0_2_44)">
<path d="M143.085 83.4506C149.456 44.2641 122.802 7.34073 83.5514 0.979871C44.3007 -5.38099 7.31667 21.2294 0.945375 60.4159C-5.42592 99.6024 21.2282 136.526 60.4789 142.887C99.7297 149.248 136.714 122.637 143.085 83.4506Z" fill="white"/>
<path d="M74.1854 81.199C90.8871 81.199 104.427 67.6818 104.427 51.0074C104.427 34.333 90.8871 20.8157 74.1854 20.8157C57.4837 20.8157 43.9442 34.333 43.9442 51.0074C43.9442 67.6818 57.4837 81.199 74.1854 81.199Z" fill="#D899FF"/>
<path d="M74.1263 85.2678C62.3482 85.2958 50.9987 89.6818 42.2712 97.5781C33.5438 105.474 28.0581 116.32 26.8745 128.02C40.3665 138.981 57.387 144.677 74.7704 144.048C92.1538 143.419 108.717 136.507 121.378 124.6C119.436 113.522 113.622 103.491 104.971 96.29C96.3192 89.0886 85.3901 85.1831 74.1263 85.2678Z" fill="#D899FF"/>
</g>
<defs>
<clipPath id="clip0_2_44">
<rect width="144" height="144" fill="white"/>
</clipPath>
</defs>
</svg>
