<svg width="24" height="24" viewBox="0 0 24 24" fill="none" xmlns="http://www.w3.org/2000/svg">
    <path d="M15.7996 18.7031C16.011 18.9145 16.1297 19.2011 16.1297 19.5C16.1297 19.7989 16.011 20.0855 15.7996 20.2969C15.5883 20.5082 15.3016 20.627 15.0028 20.627C14.7039 20.627 14.4172 20.5082 14.2059 20.2969L6.70589 12.7969C6.60101 12.6924 6.51779 12.5682 6.46101 12.4314C6.40423 12.2947 6.375 12.1481 6.375 12C6.375 11.8519 6.40423 11.7053 6.46101 11.5686C6.51779 11.4318 6.60101 11.3076 6.70589 11.2031L14.2059 3.70312C14.4172 3.49178 14.7039 3.37305 15.0028 3.37305C15.3016 3.37305 15.5883 3.49178 15.7996 3.70312C16.011 3.91447 16.1297 4.20111 16.1297 4.5C16.1297 4.79888 16.011 5.08553 15.7996 5.29687L9.09745 11.9991L15.7996 18.7031Z" fill="#9DAAAF"/>
    </svg>
    