<svg width="31" height="36" viewBox="0 0 31 36" fill="none" xmlns="http://www.w3.org/2000/svg">
<g clip-path="url(#clip0_46_296)">
<path d="M26.4502 5.04053H4.5498C2.26584 5.04053 0.414337 6.88937 0.414337 9.17004V31.8744C0.414337 34.1551 2.26584 36.004 4.5498 36.004H26.4502C28.7341 36.004 30.5856 34.1551 30.5856 31.8744V9.17004C30.5856 6.88937 28.7341 5.04053 26.4502 5.04053Z" fill="#E8E5D4"/>
<path d="M26.3785 1.9176H4.62151C2.29795 1.9176 0.414337 3.79851 0.414337 6.11873V28.6799C0.414337 31.0001 2.29795 32.881 4.62151 32.881H26.3785C28.702 32.881 30.5856 31.0001 30.5856 28.6799V6.11873C30.5856 3.79851 28.702 1.9176 26.3785 1.9176Z" fill="#FCFBED"/>
<path d="M26.6773 1.78625H4.32272C1.93229 1.78625 0 3.57652 0 5.78848V10.829H31V5.78848C31 3.57652 29.0638 1.78625 26.6773 1.78625Z" fill="#FFAA00"/>
<path d="M22.6375 9.50827C24.2503 9.50827 25.5578 8.20268 25.5578 6.59215C25.5578 4.98162 24.2503 3.67603 22.6375 3.67603C21.0246 3.67603 19.7171 4.98162 19.7171 6.59215C19.7171 8.20268 21.0246 9.50827 22.6375 9.50827Z" fill="#EF7406"/>
<path d="M24.4622 6.61593C24.4622 6.97805 24.3546 7.33203 24.153 7.63306C23.9515 7.9341 23.665 8.16865 23.3299 8.30704C22.9948 8.44544 22.6261 8.48144 22.2705 8.41051C21.9149 8.33957 21.5883 8.16489 21.3322 7.90855C21.0761 7.65222 20.9018 7.32576 20.8315 6.97051C20.7613 6.61525 20.7981 6.24718 20.9375 5.91285C21.0768 5.57853 21.3123 5.29299 21.6142 5.09238C21.9161 4.89177 22.2708 4.78511 22.6335 4.78589C22.8739 4.78589 23.1121 4.83325 23.3342 4.92527C23.5563 5.01729 23.7581 5.15216 23.928 5.32215C24.0978 5.49213 24.2325 5.6939 24.3241 5.91591C24.4158 6.13792 24.4627 6.3758 24.4622 6.61593Z" fill="#FCFBED"/>
<path d="M8.03983 9.50827C9.65267 9.50827 10.9601 8.20268 10.9601 6.59215C10.9601 4.98162 9.65267 3.67603 8.03983 3.67603C6.42698 3.67603 5.11951 4.98162 5.11951 6.59215C5.11951 8.20268 6.42698 9.50827 8.03983 9.50827Z" fill="#EF7406"/>
<path d="M9.8725 6.61593C9.8725 6.97787 9.765 7.3317 9.56363 7.63265C9.36225 7.93359 9.07604 8.16815 8.74116 8.30666C8.40628 8.44517 8.03779 8.48142 7.68229 8.41081C7.32678 8.34019 7.00023 8.16589 6.74393 7.90996C6.48762 7.65402 6.31308 7.32795 6.24237 6.97296C6.17165 6.61796 6.20795 6.25 6.34666 5.9156C6.48537 5.58121 6.72027 5.29539 7.02165 5.0943C7.32303 4.89322 7.67737 4.78589 8.03984 4.78589C8.52589 4.78589 8.99204 4.9787 9.33573 5.3219C9.67942 5.6651 9.8725 6.13057 9.8725 6.61593Z" fill="#FCFBED"/>
<path d="M8.04383 0H8.03984C7.32913 0 6.75299 0.575316 6.75299 1.285V6.06697C6.75299 6.77666 7.32913 7.35197 8.03984 7.35197H8.04383C8.75454 7.35197 9.33068 6.77666 9.33068 6.06697V1.285C9.33068 0.575316 8.75454 0 8.04383 0Z" fill="#0B3F51"/>
<path d="M8.03986 6.27385C7.6982 6.2728 7.37088 6.13653 7.12966 5.89491C6.88844 5.65329 6.75299 5.32603 6.75299 4.98486V6.06697C6.77131 6.39593 6.91508 6.7054 7.15478 6.93181C7.39447 7.15821 7.71189 7.28438 8.04183 7.28438C8.37177 7.28438 8.68919 7.15821 8.92888 6.93181C9.16858 6.7054 9.31237 6.39593 9.33069 6.06697V4.98486C9.32964 5.3264 9.1933 5.65365 8.95145 5.89515C8.7096 6.13666 8.38189 6.2728 8.03986 6.27385Z" fill="#093A47"/>
<path d="M22.6374 7.35202C22.2961 7.35202 21.9688 7.21664 21.7275 6.97565C21.4862 6.73467 21.3506 6.40782 21.3506 6.06702V1.29301C21.3506 0.951836 21.486 0.624576 21.7273 0.382959C21.9685 0.141342 22.2958 0.00508132 22.6374 0.00402832C22.9791 0.00508132 23.3064 0.141342 23.5476 0.382959C23.7889 0.624576 23.9243 0.951836 23.9243 1.29301V6.06702C23.9243 6.40782 23.7887 6.73467 23.5474 6.97565C23.3061 7.21664 22.9787 7.35202 22.6374 7.35202Z" fill="#0B3F51"/>
<path d="M22.6374 6.27385C22.2958 6.2728 21.9685 6.13653 21.7273 5.89491C21.486 5.65329 21.3506 5.32603 21.3506 4.98486V6.06697C21.3506 6.40778 21.4862 6.73463 21.7275 6.97561C21.9688 7.2166 22.2961 7.35198 22.6374 7.35198C22.9787 7.35198 23.3061 7.2166 23.5474 6.97561C23.7887 6.73463 23.9243 6.40778 23.9243 6.06697V4.98486C23.9243 5.32603 23.7889 5.65329 23.5476 5.89491C23.3064 6.13653 22.9791 6.2728 22.6374 6.27385Z" fill="#093A47"/>
<path d="M7.61697 17.6953V21.25H7.00418V17.6953H7.61697ZM9.06717 19.2505V19.7363H7.46072V19.2505H9.06717ZM9.26981 17.6953V18.1836H7.46072V17.6953H9.26981ZM10.2581 17.6953H11.5154C11.7856 17.6953 12.0159 17.736 12.2063 17.8174C12.3968 17.8988 12.5424 18.0192 12.6433 18.1787C12.7459 18.3366 12.7971 18.5319 12.7971 18.7646C12.7971 18.9421 12.7646 19.0983 12.6995 19.2334C12.6344 19.3685 12.5424 19.4824 12.4236 19.5752C12.3048 19.6663 12.1632 19.7371 11.9988 19.7876L11.8133 19.8779H10.6829L10.678 19.3921H11.5252C11.6717 19.3921 11.7937 19.366 11.8914 19.314C11.989 19.2619 12.0623 19.1911 12.1111 19.1016C12.1616 19.0104 12.1868 18.9079 12.1868 18.7939C12.1868 18.6702 12.1624 18.5628 12.1136 18.4717C12.0664 18.3789 11.9931 18.3081 11.8938 18.2593C11.7945 18.2088 11.6684 18.1836 11.5154 18.1836H10.8709V21.25H10.2581V17.6953ZM12.2869 21.25L11.4519 19.6533L12.094 19.6509L12.9412 21.2183V21.25H12.2869ZM14.5618 17.6953V21.25H13.949V17.6953H14.5618ZM16.8562 21.25H16.097L16.1018 20.7642H16.8562C17.076 20.7642 17.2599 20.7161 17.408 20.6201C17.5577 20.5241 17.67 20.3866 17.7449 20.2075C17.8214 20.0285 17.8596 19.8153 17.8596 19.5679V19.375C17.8596 19.1829 17.8377 19.0129 17.7937 18.8647C17.7514 18.7166 17.6879 18.5921 17.6033 18.4912C17.5203 18.3903 17.4178 18.3138 17.2957 18.2617C17.1752 18.2096 17.0361 18.1836 16.8782 18.1836H16.0823V17.6953H16.8782C17.1142 17.6953 17.3299 17.7352 17.5252 17.8149C17.7205 17.8931 17.8889 18.0062 18.0305 18.1543C18.1738 18.3024 18.2836 18.4798 18.3601 18.6865C18.4366 18.8932 18.4749 19.1243 18.4749 19.3799V19.5679C18.4749 19.8234 18.4366 20.0545 18.3601 20.2612C18.2836 20.4679 18.1738 20.6453 18.0305 20.7935C17.8873 20.9399 17.7164 21.0531 17.5179 21.1328C17.3209 21.2109 17.1004 21.25 16.8562 21.25ZM16.4363 17.6953V21.25H15.8235V17.6953H16.4363ZM20.9207 18.1689L19.8587 21.25H19.2166L20.5545 17.6953H20.9646L20.9207 18.1689ZM21.8094 21.25L20.7449 18.1689L20.6985 17.6953H21.1111L22.4539 21.25H21.8094ZM21.7581 19.9316V20.4175H19.8245V19.9316H21.7581ZM23.4129 17.6953L24.2381 19.3921L25.0633 17.6953H25.742L24.5457 19.9414V21.25H23.928V19.9414L22.7317 17.6953H23.4129Z" fill="black"/>
</g>
<defs>
<clipPath id="clip0_46_296">
<rect width="31" height="36" fill="white"/>
</clipPath>
</defs>
</svg>
