<svg width="31" height="38" viewBox="0 0 31 38" fill="none" xmlns="http://www.w3.org/2000/svg">
<g clip-path="url(#clip0_189_150)">
<path d="M26.4502 5.32056H4.5498C2.26585 5.32056 0.414337 7.27212 0.414337 9.67949V33.6452C0.414337 36.0526 2.26585 38.0042 4.5498 38.0042H26.4502C28.7341 38.0042 30.5857 36.0526 30.5857 33.6452V9.67949C30.5857 7.27212 28.7341 5.32056 26.4502 5.32056Z" fill="#E8E5D4"/>
<path d="M26.3785 2.02405H4.62151C2.29795 2.02405 0.414337 4.00945 0.414337 6.45857V30.2731C0.414337 32.7223 2.29795 34.7077 4.62151 34.7077H26.3785C28.702 34.7077 30.5857 32.7223 30.5857 30.2731V6.45857C30.5857 4.00945 28.702 2.02405 26.3785 2.02405Z" fill="#FCFBED"/>
<path d="M26.6773 1.88135H4.32272C1.93229 1.88135 0 3.77526 0 6.1059V11.4265H31V6.1059C31 3.77526 29.0638 1.88135 26.6773 1.88135Z" fill="#A03131"/>
<path d="M24.7052 9.13569C25.8456 7.9336 25.8456 5.98463 24.7052 4.78255C23.5647 3.58046 21.7157 3.58047 20.5752 4.78255C19.4348 5.98464 19.4348 7.93359 20.5752 9.13567C21.7157 10.3378 23.5647 10.3378 24.7052 9.13569Z" fill="#2294AF"/>
<path d="M24.4622 6.95832C24.4622 7.34055 24.3546 7.7142 24.153 8.03195C23.9515 8.34971 23.665 8.5973 23.3299 8.74338C22.9948 8.88946 22.6261 8.92747 22.2705 8.8526C21.9149 8.77772 21.5883 8.59332 21.3322 8.32275C21.0761 8.05218 20.9018 7.70759 20.8315 7.3326C20.7613 6.95761 20.7981 6.56907 20.9375 6.21617C21.0768 5.86328 21.3123 5.56188 21.6142 5.35012C21.9161 5.13837 22.2708 5.02579 22.6335 5.02662C22.8741 5.02606 23.1125 5.07568 23.3348 5.17261C23.5572 5.26954 23.7592 5.41187 23.9291 5.59141C24.0991 5.77096 24.2337 5.98416 24.3252 6.21875C24.4167 6.45334 24.4632 6.70469 24.4622 6.95832Z" fill="#FCFBED"/>
<path d="M10.8843 7.66548C11.2537 6.01067 10.2804 4.35356 8.71044 3.96421C7.14046 3.57485 5.56829 4.6007 5.1989 6.25551C4.82951 7.91033 5.80278 9.56746 7.37275 9.95682C8.94273 10.3462 10.5149 9.3203 10.8843 7.66548Z" fill="#2294AF"/>
<path d="M9.8725 6.95832C9.8725 7.34038 9.765 7.71385 9.56363 8.03152C9.36225 8.34919 9.07604 8.59678 8.74116 8.74298C8.40628 8.88919 8.03779 8.92744 7.68229 8.85291C7.32678 8.77837 7.00023 8.5944 6.74393 8.32424C6.48762 8.05409 6.31308 7.70989 6.24237 7.33518C6.17165 6.96046 6.20795 6.57206 6.34666 6.21909C6.48537 5.86612 6.72027 5.56442 7.02165 5.35217C7.32303 5.13991 7.67737 5.02662 8.03984 5.02662C8.28066 5.02606 8.51921 5.07565 8.74179 5.17253C8.96438 5.26941 9.16661 5.41168 9.3369 5.59116C9.50718 5.77065 9.64215 5.98382 9.73406 6.21843C9.82598 6.45305 9.87303 6.70449 9.8725 6.95832Z" fill="#FCFBED"/>
<path d="M8.04383 0H8.03984C7.32913 0 6.75299 0.607278 6.75299 1.35639V6.40402C6.75299 7.15314 7.32913 7.76042 8.03984 7.76042H8.04383C8.75454 7.76042 9.33068 7.15314 9.33068 6.40402V1.35639C9.33068 0.607278 8.75454 0 8.04383 0Z" fill="#0B3F51"/>
<path d="M8.03984 6.61823C7.69887 6.61713 7.37215 6.47387 7.13105 6.21973C6.88994 5.9656 6.75402 5.62124 6.75297 5.26184V6.39987C6.74322 6.58462 6.76932 6.76953 6.82969 6.94328C6.89005 7.11704 6.98342 7.27599 7.10405 7.41042C7.22469 7.54484 7.37009 7.65192 7.53133 7.7251C7.69257 7.79828 7.86626 7.83602 8.04181 7.83602C8.21736 7.83602 8.39107 7.79828 8.55231 7.7251C8.71355 7.65192 8.85895 7.54484 8.97958 7.41042C9.10022 7.27599 9.19359 7.11704 9.25395 6.94328C9.31432 6.76953 9.34042 6.58462 9.33067 6.39987V5.26184C9.32857 5.62162 9.19175 5.96598 8.95002 6.21999C8.70828 6.47401 8.38118 6.61713 8.03984 6.61823Z" fill="#093A47"/>
<path d="M22.6374 7.76049C22.2958 7.75938 21.9685 7.61554 21.7273 7.3605C21.486 7.10546 21.3506 6.76002 21.3506 6.3999V1.36067C21.3506 1.00093 21.4862 0.655925 21.7275 0.401552C21.9688 0.147179 22.2961 0.00427246 22.6374 0.00427246C22.9787 0.00427246 23.3061 0.147179 23.5474 0.401552C23.7887 0.655925 23.9243 1.00093 23.9243 1.36067V6.3999C23.9243 6.76002 23.7889 7.10546 23.5476 7.3605C23.3064 7.61554 22.9791 7.75938 22.6374 7.76049Z" fill="#0B3F51"/>
<path d="M22.6374 6.61823C22.2965 6.61713 21.9698 6.47387 21.7287 6.21973C21.4876 5.9656 21.3516 5.62124 21.3506 5.26184V6.39987C21.3506 6.75961 21.4862 7.10461 21.7275 7.35898C21.9688 7.61336 22.2961 7.75626 22.6374 7.75626C22.9787 7.75626 23.3061 7.61336 23.5474 7.35898C23.7887 7.10461 23.9243 6.75961 23.9243 6.39987V5.26184C23.9232 5.62124 23.7873 5.9656 23.5462 6.21973C23.3051 6.47387 22.9784 6.61713 22.6374 6.61823Z" fill="#093A47"/>
<path d="M5.61035 18.4453H6.15723L7.18506 21.187L8.21045 18.4453H8.75732L7.3999 22H6.96533L5.61035 18.4453ZM5.36133 18.4453H5.88135L5.97168 20.8184V22H5.36133V18.4453ZM8.48633 18.4453H9.00879V22H8.396V20.8184L8.48633 18.4453ZM10.0654 20.7085V20.6523C10.0654 20.4619 10.0931 20.2853 10.1484 20.1226C10.2038 19.9582 10.2835 19.8158 10.3877 19.6953C10.4935 19.5732 10.6221 19.4788 10.7734 19.4121C10.9264 19.3438 11.099 19.3096 11.291 19.3096C11.4847 19.3096 11.6572 19.3438 11.8086 19.4121C11.9616 19.4788 12.091 19.5732 12.1968 19.6953C12.3026 19.8158 12.3831 19.9582 12.4385 20.1226C12.4938 20.2853 12.5215 20.4619 12.5215 20.6523V20.7085C12.5215 20.8989 12.4938 21.0755 12.4385 21.2383C12.3831 21.401 12.3026 21.5435 12.1968 21.6655C12.091 21.786 11.9624 21.8804 11.811 21.9487C11.6597 22.0155 11.488 22.0488 11.2959 22.0488C11.1022 22.0488 10.9289 22.0155 10.7759 21.9487C10.6245 21.8804 10.4959 21.786 10.3901 21.6655C10.2843 21.5435 10.2038 21.401 10.1484 21.2383C10.0931 21.0755 10.0654 20.8989 10.0654 20.7085ZM10.6538 20.6523V20.7085C10.6538 20.8273 10.666 20.9396 10.6904 21.0454C10.7148 21.1512 10.7531 21.244 10.8052 21.3237C10.8573 21.4035 10.924 21.4661 11.0054 21.5117C11.0868 21.5573 11.1836 21.5801 11.2959 21.5801C11.4049 21.5801 11.4993 21.5573 11.5791 21.5117C11.6605 21.4661 11.7272 21.4035 11.7793 21.3237C11.8314 21.244 11.8696 21.1512 11.894 21.0454C11.9201 20.9396 11.9331 20.8273 11.9331 20.7085V20.6523C11.9331 20.5352 11.9201 20.4245 11.894 20.3203C11.8696 20.2145 11.8306 20.1209 11.7769 20.0396C11.7248 19.9582 11.658 19.8947 11.5767 19.8491C11.4969 19.8019 11.4017 19.7783 11.291 19.7783C11.1803 19.7783 11.0843 19.8019 11.0029 19.8491C10.9232 19.8947 10.8573 19.9582 10.8052 20.0396C10.7531 20.1209 10.7148 20.2145 10.6904 20.3203C10.666 20.4245 10.6538 20.5352 10.6538 20.6523ZM14.0981 19.9224V22H13.5098V19.3584H14.064L14.0981 19.9224ZM13.9932 20.5815L13.8027 20.5791C13.8044 20.3919 13.8304 20.2202 13.8809 20.064C13.9329 19.9077 14.0046 19.7734 14.0957 19.6611C14.1885 19.5488 14.2992 19.4626 14.4277 19.4023C14.5563 19.3405 14.6995 19.3096 14.8574 19.3096C14.9844 19.3096 15.0991 19.3275 15.2017 19.3633C15.3058 19.3975 15.3945 19.4536 15.4678 19.5317C15.5426 19.6099 15.5996 19.7116 15.6387 19.8369C15.6777 19.9606 15.6973 20.1128 15.6973 20.2935V22H15.1064V20.291C15.1064 20.1641 15.0877 20.064 15.0503 19.9907C15.0145 19.9159 14.9616 19.863 14.8916 19.832C14.8232 19.7995 14.7378 19.7832 14.6353 19.7832C14.5343 19.7832 14.444 19.8044 14.3643 19.8467C14.2845 19.889 14.217 19.9468 14.1616 20.02C14.1079 20.0933 14.0664 20.1779 14.0371 20.2739C14.0078 20.37 13.9932 20.4725 13.9932 20.5815ZM18.4092 21.4531V18.25H19V22H18.4653L18.4092 21.4531ZM16.6904 20.7085V20.6572C16.6904 20.457 16.714 20.2747 16.7612 20.1104C16.8084 19.9443 16.8768 19.8019 16.9663 19.6831C17.0558 19.5627 17.1649 19.4707 17.2935 19.4072C17.422 19.3421 17.5669 19.3096 17.728 19.3096C17.8875 19.3096 18.0275 19.3405 18.1479 19.4023C18.2684 19.4642 18.3709 19.5529 18.4556 19.6685C18.5402 19.7824 18.6077 19.9191 18.6582 20.0786C18.7087 20.2365 18.7445 20.4123 18.7656 20.606V20.7695C18.7445 20.9583 18.7087 21.1309 18.6582 21.2871C18.6077 21.4434 18.5402 21.5785 18.4556 21.6924C18.3709 21.8063 18.2676 21.8942 18.1455 21.9561C18.0251 22.0179 17.8843 22.0488 17.7231 22.0488C17.5636 22.0488 17.4196 22.0155 17.291 21.9487C17.1641 21.882 17.0558 21.7884 16.9663 21.668C16.8768 21.5475 16.8084 21.4059 16.7612 21.2432C16.714 21.0788 16.6904 20.9006 16.6904 20.7085ZM17.2788 20.6572V20.7085C17.2788 20.8289 17.2894 20.9412 17.3105 21.0454C17.3333 21.1496 17.3683 21.2415 17.4155 21.3213C17.4627 21.3994 17.5238 21.4613 17.5986 21.5068C17.6751 21.5508 17.7663 21.5728 17.8721 21.5728C18.0055 21.5728 18.1154 21.5435 18.2017 21.4849C18.2879 21.4263 18.3555 21.3473 18.4043 21.248C18.4548 21.1471 18.4889 21.0348 18.5068 20.9111V20.4692C18.4971 20.3732 18.4767 20.2837 18.4458 20.2007C18.4165 20.1177 18.3766 20.0452 18.3262 19.9834C18.2757 19.9199 18.2131 19.8711 18.1382 19.8369C18.0649 19.8011 17.9779 19.7832 17.877 19.7832C17.7695 19.7832 17.6784 19.806 17.6035 19.8516C17.5286 19.8971 17.4668 19.9598 17.418 20.0396C17.3708 20.1193 17.3358 20.2121 17.313 20.3179C17.2902 20.4237 17.2788 20.5368 17.2788 20.6572ZM21.6045 21.4702V20.2104C21.6045 20.116 21.5874 20.0347 21.5532 19.9663C21.519 19.8979 21.467 19.8451 21.397 19.8076C21.3286 19.7702 21.2424 19.7515 21.1382 19.7515C21.0422 19.7515 20.9591 19.7677 20.8892 19.8003C20.8192 19.8328 20.7646 19.8768 20.7256 19.9321C20.6865 19.9875 20.667 20.0501 20.667 20.1201H20.0811C20.0811 20.016 20.1063 19.915 20.1567 19.8174C20.2072 19.7197 20.2804 19.6326 20.3765 19.5562C20.4725 19.4797 20.5872 19.4194 20.7207 19.3755C20.8542 19.3315 21.0039 19.3096 21.1699 19.3096C21.3685 19.3096 21.5443 19.3429 21.6973 19.4097C21.8519 19.4764 21.9731 19.5773 22.061 19.7124C22.1506 19.8459 22.1953 20.0135 22.1953 20.2153V21.3896C22.1953 21.5101 22.2035 21.6183 22.2197 21.7144C22.2376 21.8088 22.2629 21.891 22.2954 21.9609V22H21.6924C21.6647 21.9365 21.6427 21.856 21.6265 21.7583C21.6118 21.659 21.6045 21.563 21.6045 21.4702ZM21.6899 20.3936L21.6948 20.7573H21.2725C21.1634 20.7573 21.0674 20.7679 20.9844 20.7891C20.9014 20.8086 20.8322 20.8379 20.7769 20.877C20.7215 20.916 20.68 20.9632 20.6523 21.0186C20.6247 21.0739 20.6108 21.1366 20.6108 21.2065C20.6108 21.2765 20.6271 21.3408 20.6597 21.3994C20.6922 21.4564 20.7394 21.5011 20.8013 21.5337C20.8647 21.5662 20.9412 21.5825 21.0308 21.5825C21.1512 21.5825 21.2562 21.5581 21.3457 21.5093C21.4368 21.4588 21.5085 21.3978 21.5605 21.3262C21.6126 21.2529 21.6403 21.1838 21.6436 21.1187L21.834 21.3799C21.8145 21.4466 21.7811 21.5182 21.7339 21.5947C21.6867 21.6712 21.6248 21.7445 21.5483 21.8145C21.4735 21.8828 21.3831 21.939 21.2773 21.9829C21.1732 22.0269 21.0527 22.0488 20.916 22.0488C20.7435 22.0488 20.5897 22.0146 20.4546 21.9463C20.3195 21.8763 20.2137 21.7827 20.1372 21.6655C20.0607 21.5467 20.0225 21.4124 20.0225 21.2627C20.0225 21.1227 20.0485 20.999 20.1006 20.8916C20.1543 20.7826 20.2324 20.6914 20.335 20.6182C20.4391 20.5449 20.5661 20.4896 20.7158 20.4521C20.8656 20.4131 21.0365 20.3936 21.2285 20.3936H21.6899ZM24.0381 21.7119L24.7559 19.3584H25.3857L24.3262 22.4028C24.3018 22.4679 24.27 22.5387 24.231 22.6152C24.1919 22.6917 24.1406 22.7642 24.0771 22.8325C24.0153 22.9025 23.938 22.9587 23.8452 23.001C23.7524 23.0449 23.6401 23.0669 23.5083 23.0669C23.4562 23.0669 23.4058 23.062 23.3569 23.0522C23.3097 23.0441 23.265 23.0352 23.2227 23.0254L23.2202 22.5762C23.2365 22.5778 23.256 22.5794 23.2788 22.5811C23.3032 22.5827 23.3228 22.5835 23.3374 22.5835C23.4351 22.5835 23.5164 22.5713 23.5815 22.5469C23.6466 22.5241 23.6995 22.4867 23.7402 22.4346C23.7826 22.3825 23.8184 22.3125 23.8477 22.2246L24.0381 21.7119ZM23.6328 19.3584L24.2603 21.3359L24.3652 21.9561L23.9575 22.061L22.998 19.3584H23.6328Z" fill="black"/>
</g>
<defs>
<clipPath id="clip0_189_150">
<rect width="31" height="38" fill="white"/>
</clipPath>
</defs>
</svg>
