<svg width="31" height="39" viewBox="0 0 31 39" fill="none" xmlns="http://www.w3.org/2000/svg">
<g clip-path="url(#clip0_46_390)">
<path d="M26.4502 5.46057H4.5498C2.26585 5.46057 0.414337 7.46349 0.414337 9.93421V34.5306C0.414337 37.0014 2.26585 39.0043 4.5498 39.0043H26.4502C28.7341 39.0043 30.5857 37.0014 30.5857 34.5306V9.93421C30.5857 7.46349 28.7341 5.46057 26.4502 5.46057Z" fill="#E8E5D4"/>
<path d="M26.3785 2.07739H4.62151C2.29795 2.07739 0.414337 4.11504 0.414337 6.62861V31.0699C0.414337 33.5834 2.29795 35.6211 4.62151 35.6211H26.3785C28.702 35.6211 30.5857 33.5834 30.5857 31.0699V6.62861C30.5857 4.11504 28.702 2.07739 26.3785 2.07739Z" fill="#FCFBED"/>
<path d="M26.6773 1.93518H4.32271C1.93227 1.93518 0 3.87463 0 6.27092V11.7315H31V6.27092C31 3.87463 29.0637 1.93518 26.6773 1.93518Z" fill="#6EB214"/>
<path d="M22.6375 10.3006C24.2503 10.3006 25.5578 8.88617 25.5578 7.14143C25.5578 5.39669 24.2503 3.9823 22.6375 3.9823C21.0246 3.9823 19.7171 5.39669 19.7171 7.14143C19.7171 8.88617 21.0246 10.3006 22.6375 10.3006Z" fill="#609112"/>
<path d="M24.4661 7.16736C24.4661 7.55965 24.3585 7.94313 24.157 8.26925C23.9554 8.59537 23.669 8.84947 23.3339 8.9994C22.9988 9.14932 22.6301 9.18833 22.2745 9.11148C21.9188 9.03464 21.5923 8.8454 21.3362 8.5677C21.08 8.29001 20.9058 7.93634 20.8355 7.55149C20.7652 7.16663 20.8021 6.76788 20.9414 6.40569C21.0808 6.0435 21.3163 5.73417 21.6182 5.51685C21.9201 5.29952 22.2748 5.18397 22.6374 5.18482C22.8779 5.18482 23.116 5.23613 23.3382 5.33581C23.5603 5.4355 23.7621 5.58161 23.9319 5.76576C24.1018 5.94991 24.2364 6.1685 24.3281 6.409C24.4197 6.64951 24.4666 6.90721 24.4661 7.16736Z" fill="#FCFBED"/>
<path d="M8.03983 10.3006C9.65267 10.3006 10.9601 8.88617 10.9601 7.14143C10.9601 5.39669 9.65267 3.9823 8.03983 3.9823C6.42698 3.9823 5.11951 5.39669 5.11951 7.14143C5.11951 8.88617 6.42698 10.3006 8.03983 10.3006Z" fill="#609112"/>
<path d="M9.87252 7.16736C9.87252 7.55947 9.76504 7.94277 9.56366 8.2688C9.36229 8.59483 9.07606 8.84893 8.74119 8.99898C8.40631 9.14904 8.03782 9.1883 7.68232 9.11181C7.32681 9.03531 7.00027 8.84648 6.74396 8.56922C6.48766 8.29196 6.31311 7.93871 6.2424 7.55414C6.17168 7.16956 6.20798 6.77093 6.34669 6.40867C6.4854 6.04641 6.7203 5.73678 7.02168 5.51893C7.32306 5.30109 7.67738 5.18481 8.03985 5.18481C8.52591 5.18481 8.99206 5.39369 9.33575 5.76549C9.67944 6.13729 9.87252 6.64155 9.87252 7.16736Z" fill="#FCFBED"/>
<path d="M8.03984 7.96448C7.69887 7.96334 7.37217 7.8163 7.13106 7.55548C6.88996 7.29466 6.75404 6.94124 6.75299 6.57239V1.40054C6.75403 1.03129 6.88982 0.677415 7.13081 0.415908C7.37181 0.154401 7.69851 0.00642101 8.03984 0.00415039C8.38187 0.00528711 8.70959 0.152766 8.95144 0.414395C9.19329 0.676025 9.32963 1.03055 9.33068 1.40054V6.57239C9.32963 6.94199 9.19316 7.29606 8.9512 7.55701C8.70923 7.81795 8.3815 7.96448 8.03984 7.96448Z" fill="#0B3F51"/>
<path d="M8.03984 6.79667C7.69851 6.7944 7.37181 6.64641 7.13081 6.3849C6.88982 6.1234 6.75403 5.76952 6.75299 5.40027V6.57255C6.77131 6.92893 6.91509 7.26418 7.15478 7.50946C7.39448 7.75473 7.71189 7.89141 8.04184 7.89141C8.37178 7.89141 8.68919 7.75473 8.92889 7.50946C9.16858 7.26418 9.31236 6.92893 9.33068 6.57255V5.40027C9.32963 5.77027 9.19329 6.12479 8.95144 6.38642C8.70959 6.64805 8.38187 6.79554 8.03984 6.79667Z" fill="#093A47"/>
<path d="M22.6414 0H22.6374C21.9267 0 21.3506 0.623259 21.3506 1.39209V6.57255C21.3506 7.34138 21.9267 7.96464 22.6374 7.96464H22.6414C23.3521 7.96464 23.9283 7.34138 23.9283 6.57255V1.39209C23.9283 0.623259 23.3521 0 22.6414 0Z" fill="#0B3F51"/>
<path d="M22.6374 6.79667C22.2958 6.79553 21.9685 6.64791 21.7273 6.38615C21.486 6.1244 21.3506 5.76987 21.3506 5.40027V6.57255C21.3506 6.94176 21.4862 7.29585 21.7275 7.55691C21.9688 7.81798 22.2961 7.96465 22.6374 7.96465C22.9787 7.96465 23.3061 7.81798 23.5474 7.55691C23.7887 7.29585 23.9243 6.94176 23.9243 6.57255V5.40027C23.9243 5.76987 23.7888 6.1244 23.5476 6.38615C23.3064 6.64791 22.9791 6.79553 22.6374 6.79667Z" fill="#093A47"/>
<path d="M6.23145 23.1678C6.23145 23.0946 6.22005 23.0295 6.19727 22.9725C6.17611 22.9156 6.13786 22.8635 6.08252 22.8163C6.02718 22.7691 5.94906 22.7235 5.84814 22.6796C5.74886 22.634 5.62191 22.5876 5.46729 22.5404C5.29801 22.4883 5.14176 22.4305 4.99854 22.3671C4.85693 22.302 4.73324 22.2271 4.62744 22.1425C4.52165 22.0562 4.43945 21.9577 4.38086 21.847C4.32227 21.7347 4.29297 21.6053 4.29297 21.4589C4.29297 21.314 4.32308 21.1822 4.3833 21.0634C4.44515 20.9445 4.53223 20.842 4.64453 20.7557C4.75846 20.6678 4.89274 20.6003 5.04736 20.5531C5.20199 20.5043 5.37288 20.4799 5.56006 20.4799C5.82373 20.4799 6.05078 20.5287 6.24121 20.6263C6.43327 20.724 6.58057 20.855 6.68311 21.0194C6.78727 21.1838 6.83936 21.3653 6.83936 21.5638H6.23145C6.23145 21.4467 6.20622 21.3433 6.15576 21.2538C6.10693 21.1626 6.03206 21.091 5.93115 21.0389C5.83187 20.9869 5.70573 20.9608 5.55273 20.9608C5.40788 20.9608 5.28743 20.9828 5.19141 21.0267C5.09538 21.0707 5.02376 21.1301 4.97656 21.205C4.92936 21.2798 4.90576 21.3645 4.90576 21.4589C4.90576 21.5256 4.92122 21.5866 4.95215 21.642C4.98307 21.6957 5.03027 21.7461 5.09375 21.7933C5.15723 21.8389 5.23698 21.882 5.33301 21.9227C5.42904 21.9634 5.54215 22.0025 5.67236 22.0399C5.8693 22.0985 6.04102 22.1636 6.1875 22.2352C6.33398 22.3052 6.45605 22.385 6.55371 22.4745C6.65137 22.564 6.72461 22.6657 6.77344 22.7797C6.82227 22.892 6.84668 23.0197 6.84668 23.163C6.84668 23.3127 6.81657 23.4478 6.75635 23.5682C6.69613 23.6871 6.60986 23.7888 6.49756 23.8734C6.38688 23.9564 6.25342 24.0207 6.09717 24.0663C5.94255 24.1102 5.77002 24.1322 5.57959 24.1322C5.40869 24.1322 5.24023 24.1094 5.07422 24.0638C4.90983 24.0183 4.76009 23.9491 4.625 23.8563C4.48991 23.7619 4.38249 23.6447 4.30273 23.5048C4.22298 23.3632 4.18311 23.198 4.18311 23.0092H4.7959C4.7959 23.1247 4.81543 23.2232 4.85449 23.3046C4.89518 23.3859 4.95133 23.4527 5.02295 23.5048C5.09456 23.5552 5.17757 23.5927 5.27197 23.6171C5.368 23.6415 5.47054 23.6537 5.57959 23.6537C5.72282 23.6537 5.84245 23.6333 5.93848 23.5927C6.03613 23.552 6.10938 23.495 6.1582 23.4218C6.20703 23.3485 6.23145 23.2639 6.23145 23.1678ZM9.31934 23.5536V22.2938C9.31934 22.1994 9.30225 22.118 9.26807 22.0497C9.23389 21.9813 9.1818 21.9284 9.11182 21.891C9.04346 21.8536 8.95719 21.8348 8.85303 21.8348C8.757 21.8348 8.67399 21.8511 8.604 21.8837C8.53402 21.9162 8.47949 21.9602 8.44043 22.0155C8.40137 22.0708 8.38184 22.1335 8.38184 22.2035H7.7959C7.7959 22.0993 7.82113 21.9984 7.87158 21.9008C7.92204 21.8031 7.99528 21.716 8.09131 21.6395C8.18734 21.563 8.30208 21.5028 8.43555 21.4589C8.56901 21.4149 8.71875 21.3929 8.88477 21.3929C9.08333 21.3929 9.25911 21.4263 9.41211 21.493C9.56673 21.5598 9.68799 21.6607 9.77588 21.7958C9.8654 21.9292 9.91016 22.0969 9.91016 22.2987V23.473C9.91016 23.5935 9.91829 23.7017 9.93457 23.7977C9.95247 23.8921 9.9777 23.9743 10.0103 24.0443V24.0834H9.40723C9.37956 24.0199 9.35758 23.9393 9.34131 23.8417C9.32666 23.7424 9.31934 23.6464 9.31934 23.5536ZM9.40479 22.4769L9.40967 22.8407H8.9873C8.87826 22.8407 8.78223 22.8513 8.69922 22.8724C8.61621 22.892 8.54704 22.9213 8.4917 22.9603C8.43636 22.9994 8.39486 23.0466 8.36719 23.1019C8.33952 23.1573 8.32568 23.2199 8.32568 23.2899C8.32568 23.3599 8.34196 23.4242 8.37451 23.4828C8.40706 23.5398 8.45426 23.5845 8.51611 23.6171C8.57959 23.6496 8.65609 23.6659 8.74561 23.6659C8.86605 23.6659 8.97103 23.6415 9.06055 23.5927C9.15169 23.5422 9.22331 23.4812 9.27539 23.4095C9.32747 23.3363 9.35514 23.2671 9.3584 23.202L9.54883 23.4633C9.5293 23.53 9.49593 23.6016 9.44873 23.6781C9.40153 23.7546 9.33968 23.8278 9.26318 23.8978C9.18831 23.9662 9.09798 24.0223 8.99219 24.0663C8.88802 24.1102 8.76758 24.1322 8.63086 24.1322C8.45833 24.1322 8.30452 24.098 8.16943 24.0297C8.03434 23.9597 7.92855 23.8661 7.85205 23.7489C7.77555 23.6301 7.7373 23.4958 7.7373 23.3461C7.7373 23.2061 7.76335 23.0824 7.81543 22.975C7.86914 22.8659 7.94727 22.7748 8.0498 22.7015C8.15397 22.6283 8.28092 22.573 8.43066 22.5355C8.5804 22.4965 8.7513 22.4769 8.94336 22.4769H9.40479ZM12.2363 21.4418V21.8715H10.7471V21.4418H12.2363ZM11.1768 20.7948H11.7651V23.3534C11.7651 23.4348 11.7765 23.4974 11.7993 23.5414C11.8237 23.5837 11.8571 23.6122 11.8994 23.6268C11.9417 23.6415 11.9914 23.6488 12.0483 23.6488C12.089 23.6488 12.1281 23.6464 12.1655 23.6415C12.203 23.6366 12.2331 23.6317 12.2559 23.6268L12.2583 24.076C12.2095 24.0907 12.1525 24.1037 12.0874 24.1151C12.0239 24.1265 11.9507 24.1322 11.8677 24.1322C11.7326 24.1322 11.613 24.1086 11.5088 24.0614C11.4046 24.0126 11.3232 23.9336 11.2646 23.8246C11.2061 23.7155 11.1768 23.5707 11.1768 23.39V20.7948ZM14.7798 23.4608V21.4418H15.3706V24.0834H14.814L14.7798 23.4608ZM14.8628 22.9115L15.0605 22.9066C15.0605 23.084 15.041 23.2476 15.002 23.3973C14.9629 23.5455 14.9027 23.6748 14.8213 23.7855C14.7399 23.8946 14.6357 23.98 14.5088 24.0419C14.3818 24.1021 14.2297 24.1322 14.0522 24.1322C13.9237 24.1322 13.8057 24.1135 13.6982 24.076C13.5908 24.0386 13.498 23.9808 13.4199 23.9027C13.3434 23.8246 13.284 23.7229 13.2417 23.5975C13.1994 23.4722 13.1782 23.3225 13.1782 23.1483V21.4418H13.7666V23.1532C13.7666 23.2492 13.778 23.3298 13.8008 23.3949C13.8236 23.4584 13.8545 23.5096 13.8936 23.5487C13.9326 23.5878 13.9782 23.6154 14.0303 23.6317C14.0824 23.648 14.1377 23.6561 14.1963 23.6561C14.3639 23.6561 14.4958 23.6236 14.5918 23.5585C14.6895 23.4917 14.7586 23.4022 14.7993 23.2899C14.8416 23.1776 14.8628 23.0515 14.8628 22.9115ZM17.0645 21.9447V24.0834H16.4761V21.4418H17.0376L17.0645 21.9447ZM17.8726 21.4247L17.8677 21.9716C17.8319 21.965 17.7928 21.9602 17.7505 21.9569C17.7098 21.9537 17.6691 21.952 17.6284 21.952C17.5275 21.952 17.4388 21.9667 17.3623 21.996C17.2858 22.0236 17.2215 22.0643 17.1694 22.118C17.119 22.1701 17.0799 22.2336 17.0522 22.3085C17.0246 22.3833 17.0083 22.4672 17.0034 22.5599L16.8691 22.5697C16.8691 22.4037 16.8854 22.2499 16.918 22.1083C16.9505 21.9667 16.9993 21.8422 17.0645 21.7347C17.1312 21.6273 17.2142 21.5435 17.3135 21.4833C17.4144 21.4231 17.5308 21.3929 17.6626 21.3929C17.6984 21.3929 17.7367 21.3962 17.7773 21.4027C17.8197 21.4092 17.8514 21.4165 17.8726 21.4247ZM20.3037 23.5365V20.3334H20.8945V24.0834H20.3599L20.3037 23.5365ZM18.585 22.7919V22.7406C18.585 22.5404 18.6086 22.3581 18.6558 22.1937C18.703 22.0277 18.7713 21.8853 18.8608 21.7665C18.9504 21.646 19.0594 21.5541 19.188 21.4906C19.3166 21.4255 19.4614 21.3929 19.6226 21.3929C19.7821 21.3929 19.922 21.4239 20.0425 21.4857C20.1629 21.5476 20.2655 21.6363 20.3501 21.7518C20.4347 21.8658 20.5023 22.0025 20.5527 22.162C20.6032 22.3199 20.639 22.4956 20.6602 22.6893V22.8529C20.639 23.0417 20.6032 23.2142 20.5527 23.3705C20.5023 23.5267 20.4347 23.6618 20.3501 23.7758C20.2655 23.8897 20.1621 23.9776 20.04 24.0394C19.9196 24.1013 19.7788 24.1322 19.6177 24.1322C19.4582 24.1322 19.3141 24.0988 19.1855 24.0321C19.0586 23.9654 18.9504 23.8718 18.8608 23.7513C18.7713 23.6309 18.703 23.4893 18.6558 23.3265C18.6086 23.1622 18.585 22.9839 18.585 22.7919ZM19.1733 22.7406V22.7919C19.1733 22.9123 19.1839 23.0246 19.2051 23.1288C19.2279 23.233 19.2629 23.3249 19.3101 23.4047C19.3573 23.4828 19.4183 23.5446 19.4932 23.5902C19.5697 23.6342 19.6608 23.6561 19.7666 23.6561C19.9001 23.6561 20.0099 23.6268 20.0962 23.5682C20.1825 23.5096 20.25 23.4307 20.2988 23.3314C20.3493 23.2305 20.3835 23.1182 20.4014 22.9945V22.5526C20.3916 22.4566 20.3713 22.3671 20.3403 22.2841C20.311 22.201 20.2712 22.1286 20.2207 22.0668C20.1702 22.0033 20.1076 21.9545 20.0327 21.9203C19.9595 21.8845 19.8724 21.8666 19.7715 21.8666C19.6641 21.8666 19.5729 21.8894 19.498 21.9349C19.4232 21.9805 19.3613 22.0432 19.3125 22.1229C19.2653 22.2027 19.2303 22.2955 19.2075 22.4012C19.1847 22.507 19.1733 22.6202 19.1733 22.7406ZM23.499 23.5536V22.2938C23.499 22.1994 23.4819 22.118 23.4478 22.0497C23.4136 21.9813 23.3615 21.9284 23.2915 21.891C23.2231 21.8536 23.1369 21.8348 23.0327 21.8348C22.9367 21.8348 22.8537 21.8511 22.7837 21.8837C22.7137 21.9162 22.6592 21.9602 22.6201 22.0155C22.5811 22.0708 22.5615 22.1335 22.5615 22.2035H21.9756C21.9756 22.0993 22.0008 21.9984 22.0513 21.9008C22.1017 21.8031 22.175 21.716 22.271 21.6395C22.367 21.563 22.4818 21.5028 22.6152 21.4589C22.7487 21.4149 22.8984 21.3929 23.0645 21.3929C23.263 21.3929 23.4388 21.4263 23.5918 21.493C23.7464 21.5598 23.8677 21.6607 23.9556 21.7958C24.0451 21.9292 24.0898 22.0969 24.0898 22.2987V23.473C24.0898 23.5935 24.098 23.7017 24.1143 23.7977C24.1322 23.8921 24.1574 23.9743 24.1899 24.0443V24.0834H23.5869C23.5592 24.0199 23.5373 23.9393 23.521 23.8417C23.5063 23.7424 23.499 23.6464 23.499 23.5536ZM23.5845 22.4769L23.5894 22.8407H23.167C23.0579 22.8407 22.9619 22.8513 22.8789 22.8724C22.7959 22.892 22.7267 22.9213 22.6714 22.9603C22.616 22.9994 22.5745 23.0466 22.5469 23.1019C22.5192 23.1573 22.5054 23.2199 22.5054 23.2899C22.5054 23.3599 22.5216 23.4242 22.5542 23.4828C22.5868 23.5398 22.634 23.5845 22.6958 23.6171C22.7593 23.6496 22.8358 23.6659 22.9253 23.6659C23.0457 23.6659 23.1507 23.6415 23.2402 23.5927C23.3314 23.5422 23.403 23.4812 23.4551 23.4095C23.5072 23.3363 23.5348 23.2671 23.5381 23.202L23.7285 23.4633C23.709 23.53 23.6756 23.6016 23.6284 23.6781C23.5812 23.7546 23.5194 23.8278 23.4429 23.8978C23.368 23.9662 23.2777 24.0223 23.1719 24.0663C23.0677 24.1102 22.9473 24.1322 22.8105 24.1322C22.638 24.1322 22.4842 24.098 22.3491 24.0297C22.214 23.9597 22.1082 23.8661 22.0317 23.7489C21.9552 23.6301 21.917 23.4958 21.917 23.3461C21.917 23.2061 21.943 23.0824 21.9951 22.975C22.0488 22.8659 22.127 22.7748 22.2295 22.7015C22.3337 22.6283 22.4606 22.573 22.6104 22.5355C22.7601 22.4965 22.931 22.4769 23.123 22.4769H23.5845ZM25.9326 23.7953L26.6504 21.4418H27.2803L26.2207 24.4862C26.1963 24.5513 26.1646 24.6221 26.1255 24.6986C26.0864 24.7751 26.0352 24.8475 25.9717 24.9159C25.9098 24.9859 25.8325 25.042 25.7397 25.0844C25.647 25.1283 25.5347 25.1503 25.4028 25.1503C25.3507 25.1503 25.3003 25.1454 25.2515 25.1356C25.2043 25.1275 25.1595 25.1185 25.1172 25.1088L25.1147 24.6595C25.131 24.6612 25.1506 24.6628 25.1733 24.6644C25.1978 24.6661 25.2173 24.6669 25.2319 24.6669C25.3296 24.6669 25.411 24.6547 25.4761 24.6302C25.5412 24.6075 25.5941 24.57 25.6348 24.5179C25.6771 24.4659 25.7129 24.3959 25.7422 24.308L25.9326 23.7953ZM25.5273 21.4418L26.1548 23.4193L26.2598 24.0394L25.8521 24.1444L24.8926 21.4418H25.5273Z" fill="black"/>
</g>
<defs>
<clipPath id="clip0_46_390">
<rect width="31" height="39" fill="white"/>
</clipPath>
</defs>
</svg>
