<svg width="31" height="39" viewBox="0 0 31 39" fill="none" xmlns="http://www.w3.org/2000/svg">
<g clip-path="url(#clip0_95_62)">
<path d="M26.4502 5.46057H4.5498C2.26584 5.46057 0.414337 7.46349 0.414337 9.93421V34.5306C0.414337 37.0014 2.26584 39.0043 4.5498 39.0043H26.4502C28.7341 39.0043 30.5857 37.0014 30.5857 34.5306V9.93421C30.5857 7.46349 28.7341 5.46057 26.4502 5.46057Z" fill="#E8E5D4"/>
<path d="M26.3785 2.07739H4.62151C2.29795 2.07739 0.414337 4.11504 0.414337 6.62861V31.0699C0.414337 33.5834 2.29795 35.6211 4.62151 35.6211H26.3785C28.702 35.6211 30.5857 33.5834 30.5857 31.0699V6.62861C30.5857 4.11504 28.702 2.07739 26.3785 2.07739Z" fill="#FCFBED"/>
<path d="M26.6773 1.93518H4.32272C1.93229 1.93518 0 3.87463 0 6.27092V11.7315H31V6.27092C31 3.87463 29.0638 1.93518 26.6773 1.93518Z" fill="#0B3F51"/>
<path d="M22.6375 10.3006C24.2503 10.3006 25.5578 8.88617 25.5578 7.14143C25.5578 5.39669 24.2503 3.9823 22.6375 3.9823C21.0246 3.9823 19.7171 5.39669 19.7171 7.14143C19.7171 8.88617 21.0246 10.3006 22.6375 10.3006Z" fill="#EF7406"/>
<path d="M24.4622 7.16736C24.4622 7.55965 24.3546 7.94313 24.153 8.26925C23.9515 8.59537 23.665 8.84947 23.3299 8.9994C22.9948 9.14932 22.6261 9.18833 22.2705 9.11148C21.9149 9.03464 21.5883 8.84539 21.3322 8.5677C21.0761 8.29001 20.9018 7.93634 20.8315 7.55149C20.7613 7.16663 20.7981 6.76788 20.9375 6.40569C21.0768 6.0435 21.3123 5.73417 21.6142 5.51685C21.9161 5.29952 22.2708 5.18397 22.6335 5.18482C22.8739 5.18482 23.1121 5.23613 23.3342 5.33581C23.5563 5.4355 23.7581 5.58161 23.928 5.76576C24.0978 5.94991 24.2325 6.1685 24.3241 6.409C24.4158 6.64951 24.4627 6.90721 24.4622 7.16736Z" fill="#FCFBED"/>
<path d="M8.03983 10.3006C9.65267 10.3006 10.9601 8.88617 10.9601 7.14143C10.9601 5.39669 9.65267 3.9823 8.03983 3.9823C6.42698 3.9823 5.11951 5.39669 5.11951 7.14143C5.11951 8.88617 6.42698 10.3006 8.03983 10.3006Z" fill="#EF7406"/>
<path d="M9.8725 7.16736C9.8725 7.55947 9.765 7.94277 9.56363 8.2688C9.36225 8.59483 9.07604 8.84893 8.74116 8.99899C8.40628 9.14904 8.03779 9.18831 7.68229 9.11181C7.32678 9.03531 7.00023 8.84648 6.74393 8.56922C6.48762 8.29196 6.31308 7.93871 6.24237 7.55414C6.17165 7.16956 6.20795 6.77093 6.34666 6.40867C6.48537 6.04641 6.72027 5.73678 7.02165 5.51893C7.32303 5.30109 7.67737 5.18481 8.03984 5.18481C8.52589 5.18481 8.99204 5.39369 9.33573 5.76549C9.67942 6.13729 9.8725 6.64155 9.8725 7.16736Z" fill="#FCFBED"/>
<path d="M8.04383 0H8.03984C7.32913 0 6.75299 0.623259 6.75299 1.39209V6.57255C6.75299 7.34138 7.32913 7.96464 8.03984 7.96464H8.04383C8.75454 7.96464 9.33068 7.34138 9.33068 6.57255V1.39209C9.33068 0.623259 8.75454 0 8.04383 0Z" fill="#0B3F51"/>
<path d="M8.03986 6.79667C7.6982 6.79553 7.37088 6.64791 7.12966 6.38615C6.88844 6.1244 6.75299 5.76987 6.75299 5.40027V6.57255C6.77131 6.92893 6.91508 7.26418 7.15478 7.50946C7.39447 7.75473 7.71189 7.89141 8.04183 7.89141C8.37177 7.89141 8.68919 7.75473 8.92888 7.50946C9.16858 7.26418 9.31237 6.92893 9.33069 6.57255V5.40027C9.32964 5.77027 9.1933 6.12479 8.95145 6.38642C8.7096 6.64805 8.38189 6.79554 8.03986 6.79667Z" fill="#093A47"/>
<path d="M22.6374 7.96448C22.2961 7.96448 21.9688 7.81781 21.7275 7.55675C21.4862 7.29568 21.3506 6.94159 21.3506 6.57239V1.40054C21.3506 1.03094 21.486 0.67641 21.7273 0.414659C21.9685 0.152907 22.2958 0.00529114 22.6374 0.00415039C22.9791 0.00529114 23.3064 0.152907 23.5476 0.414659C23.7889 0.67641 23.9243 1.03094 23.9243 1.40054V6.57239C23.9243 6.94159 23.7887 7.29568 23.5474 7.55675C23.3061 7.81781 22.9787 7.96448 22.6374 7.96448Z" fill="#0B3F51"/>
<path d="M22.6374 6.79668C22.2958 6.79553 21.9685 6.64791 21.7273 6.38615C21.486 6.1244 21.3506 5.76987 21.3506 5.40027V6.57255C21.3506 6.94176 21.4862 7.29585 21.7275 7.55691C21.9688 7.81798 22.2961 7.96465 22.6374 7.96465C22.9787 7.96465 23.3061 7.81798 23.5474 7.55691C23.7887 7.29585 23.9243 6.94176 23.9243 6.57255V5.40027C23.9243 5.76987 23.7889 6.1244 23.5476 6.38615C23.3064 6.64791 22.9791 6.79553 22.6374 6.79668Z" fill="#093A47"/>
<path d="M5.55289 24.9282C5.55289 24.855 5.54149 24.7899 5.51871 24.7329C5.49755 24.6759 5.4593 24.6239 5.40396 24.5767C5.34862 24.5295 5.2705 24.4839 5.16959 24.4399C5.0703 24.3944 4.94335 24.348 4.78873 24.3008C4.61946 24.2487 4.46321 24.1909 4.31998 24.1274C4.17838 24.0623 4.05468 23.9875 3.94888 23.9028C3.84309 23.8166 3.76089 23.7181 3.7023 23.6074C3.64371 23.4951 3.61441 23.3657 3.61441 23.2192C3.61441 23.0744 3.64452 22.9425 3.70474 22.8237C3.76659 22.7049 3.85367 22.6024 3.96597 22.5161C4.07991 22.4282 4.21418 22.3607 4.3688 22.3135C4.52343 22.2646 4.69433 22.2402 4.8815 22.2402C5.14517 22.2402 5.37222 22.2891 5.56265 22.3867C5.75471 22.4844 5.90201 22.6154 6.00455 22.7798C6.10871 22.9442 6.1608 23.1257 6.1608 23.3242H5.55289C5.55289 23.207 5.52766 23.1037 5.4772 23.0142C5.42838 22.923 5.35351 22.8514 5.25259 22.7993C5.15331 22.7472 5.02717 22.7212 4.87418 22.7212C4.72932 22.7212 4.60888 22.7432 4.51285 22.7871C4.41682 22.8311 4.3452 22.8905 4.298 22.9653C4.2508 23.0402 4.2272 23.1248 4.2272 23.2192C4.2272 23.286 4.24267 23.347 4.27359 23.4023C4.30451 23.4561 4.35172 23.5065 4.41519 23.5537C4.47867 23.5993 4.55842 23.6424 4.65445 23.6831C4.75048 23.7238 4.8636 23.7629 4.9938 23.8003C5.19075 23.8589 5.36246 23.924 5.50894 23.9956C5.65543 24.0656 5.7775 24.1453 5.87515 24.2349C5.97281 24.3244 6.04605 24.4261 6.09488 24.54C6.14371 24.6523 6.16812 24.7801 6.16812 24.9233C6.16812 25.0731 6.13801 25.2082 6.07779 25.3286C6.01757 25.4474 5.9313 25.5492 5.819 25.6338C5.70832 25.7168 5.57486 25.7811 5.41861 25.8267C5.26399 25.8706 5.09146 25.8926 4.90103 25.8926C4.73013 25.8926 4.56168 25.8698 4.39566 25.8242C4.23127 25.7786 4.08153 25.7095 3.94644 25.6167C3.81135 25.5223 3.70393 25.4051 3.62418 25.2651C3.54442 25.1235 3.50455 24.9583 3.50455 24.7695H4.11734C4.11734 24.8851 4.13687 24.9836 4.17593 25.0649C4.21662 25.1463 4.27278 25.2131 4.34439 25.2651C4.41601 25.3156 4.49901 25.353 4.59341 25.3774C4.68944 25.4019 4.79198 25.4141 4.90103 25.4141C5.04426 25.4141 5.16389 25.3937 5.25992 25.353C5.35757 25.3123 5.43082 25.2554 5.47964 25.1821C5.52847 25.1089 5.55289 25.0243 5.55289 24.9282ZM9.20474 22.2891H9.81509V24.6646C9.81509 24.9347 9.7565 25.161 9.63931 25.3433C9.52213 25.5256 9.36262 25.6631 9.1608 25.7559C8.9606 25.847 8.73681 25.8926 8.48941 25.8926C8.23388 25.8926 8.00601 25.847 7.80582 25.7559C7.60562 25.6631 7.44774 25.5256 7.33218 25.3433C7.21825 25.161 7.16129 24.9347 7.16129 24.6646V22.2891H7.77164V24.6646C7.77164 24.8354 7.80093 24.9762 7.85953 25.0869C7.91812 25.196 8.00113 25.2765 8.10855 25.3286C8.21597 25.3807 8.34293 25.4067 8.48941 25.4067C8.63589 25.4067 8.76203 25.3807 8.86783 25.3286C8.97525 25.2765 9.05826 25.196 9.11685 25.0869C9.17545 24.9762 9.20474 24.8354 9.20474 24.6646V22.2891ZM13.8014 22.2891V25.8438H13.1886L11.5944 23.2974V25.8438H10.9816V22.2891H11.5944L13.1935 24.8403V22.2891H13.8014ZM16.0641 25.8438H15.3048L15.3097 25.3579H16.0641C16.2838 25.3579 16.4678 25.3099 16.6159 25.2139C16.7656 25.1178 16.8779 24.9803 16.9528 24.8013C17.0293 24.6222 17.0675 24.409 17.0675 24.1616V23.9688C17.0675 23.7767 17.0456 23.6066 17.0016 23.4585C16.9593 23.3104 16.8958 23.1859 16.8112 23.085C16.7282 22.984 16.6256 22.9076 16.5036 22.8555C16.3831 22.8034 16.244 22.7773 16.0861 22.7773H15.2902V22.2891H16.0861C16.3221 22.2891 16.5378 22.3289 16.7331 22.4087C16.9284 22.4868 17.0968 22.5999 17.2384 22.748C17.3817 22.8962 17.4915 23.0736 17.568 23.2803C17.6445 23.487 17.6828 23.7181 17.6828 23.9736V24.1616C17.6828 24.4172 17.6445 24.6483 17.568 24.855C17.4915 25.0617 17.3817 25.2391 17.2384 25.3872C17.0952 25.5337 16.9243 25.6468 16.7257 25.7266C16.5288 25.8047 16.3083 25.8438 16.0641 25.8438ZM15.6442 22.2891V25.8438H15.0314V22.2891H15.6442ZM20.1286 22.7627L19.0666 25.8438H18.4245L19.7624 22.2891H20.1725L20.1286 22.7627ZM21.0172 25.8438L19.9528 22.7627L19.9064 22.2891H20.319L21.6618 25.8438H21.0172ZM20.966 24.5254V25.0112H19.0324V24.5254H20.966ZM22.6208 22.2891L23.446 23.9858L24.2711 22.2891H24.9499L23.7536 24.5352V25.8438H23.1359V24.5352L21.9396 22.2891H22.6208Z" fill="black"/>
</g>
<defs>
<clipPath id="clip0_95_62">
<rect width="31" height="39" fill="white"/>
</clipPath>
</defs>
</svg>
