<svg width="31" height="39" viewBox="0 0 31 39" fill="none" xmlns="http://www.w3.org/2000/svg">
<g clip-path="url(#clip0_46_271)">
<path d="M26.4502 5.46057H4.5498C2.26584 5.46057 0.414337 7.46349 0.414337 9.93421V34.5306C0.414337 37.0014 2.26584 39.0043 4.5498 39.0043H26.4502C28.7341 39.0043 30.5856 37.0014 30.5856 34.5306V9.93421C30.5856 7.46349 28.7341 5.46057 26.4502 5.46057Z" fill="#E8E5D4"/>
<path d="M26.3785 2.07739H4.62151C2.29795 2.07739 0.414337 4.11504 0.414337 6.62861V31.0699C0.414337 33.5834 2.29795 35.6211 4.62151 35.6211H26.3785C28.702 35.6211 30.5856 33.5834 30.5856 31.0699V6.62861C30.5856 4.11504 28.702 2.07739 26.3785 2.07739Z" fill="#FCFBED"/>
<path d="M26.6773 1.93079H4.32271C1.93227 1.93079 0 3.87454 0 6.26651V11.7271H31V6.26651C31 3.87454 29.0637 1.93079 26.6773 1.93079Z" fill="#FFD800"/>
<path d="M23.758 10.0471C25.2469 9.37629 25.9512 7.52683 25.3312 5.91619C24.7111 4.30554 23.0014 3.54363 21.5126 4.2144C20.0237 4.88518 19.3193 6.73464 19.9394 8.34529C20.5595 9.95593 22.2691 10.7178 23.758 10.0471Z" fill="#E09B03"/>
<path d="M24.4661 7.14148C24.4661 7.53377 24.3586 7.91725 24.157 8.24337C23.9555 8.56949 23.669 8.82359 23.3339 8.97352C22.9988 9.12344 22.6301 9.16245 22.2745 9.0856C21.9189 9.00876 21.5923 8.81951 21.3362 8.54181C21.08 8.26412 20.9058 7.91046 20.8355 7.5256C20.7653 7.14075 20.8021 6.74199 20.9415 6.3798C21.0808 6.01762 21.3163 5.70829 21.6182 5.49096C21.9201 5.27364 22.2748 5.15809 22.6375 5.15894C22.8781 5.15837 23.1165 5.20929 23.3388 5.30877C23.5612 5.40826 23.7632 5.55434 23.9331 5.7386C24.1031 5.92287 24.2377 6.14168 24.3292 6.38245C24.4207 6.62321 24.4672 6.88117 24.4661 7.14148Z" fill="#FCFBED"/>
<path d="M9.15884 10.0499C10.6477 9.3791 11.3521 7.52964 10.732 5.91899C10.1119 4.30835 8.40226 3.54644 6.91337 4.21722C5.42448 4.88799 4.72016 6.73745 5.34023 8.34809C5.9603 9.95874 7.66995 10.7207 9.15884 10.0499Z" fill="#E09B03"/>
<path d="M9.87249 7.14148C9.87249 7.53359 9.76501 7.91689 9.56363 8.24292C9.36225 8.56895 9.07603 8.82305 8.74115 8.97311C8.40628 9.12316 8.03779 9.16242 7.68229 9.08592C7.32679 9.00943 7.00023 8.82061 6.74393 8.54335C6.48762 8.26608 6.31308 7.91283 6.24237 7.52825C6.17166 7.14368 6.20794 6.74506 6.34665 6.3828C6.48536 6.02053 6.72027 5.7109 7.02165 5.49306C7.32303 5.27521 7.67735 5.15894 8.03982 5.15894C8.28064 5.15837 8.51919 5.20926 8.74177 5.30869C8.96436 5.40813 9.16661 5.55414 9.33689 5.73835C9.50717 5.92255 9.64214 6.14133 9.73406 6.38212C9.82597 6.62291 9.87302 6.88097 9.87249 7.14148Z" fill="#FCFBED"/>
<path d="M8.03984 7.96448C7.6985 7.96221 7.37181 7.81422 7.13081 7.55272C6.88982 7.29121 6.75403 6.93734 6.75299 6.56808V1.39624C6.75404 1.02738 6.88995 0.67396 7.13106 0.413139C7.37216 0.152318 7.69886 0.00528709 8.03984 0.00415039C8.3815 0.00414863 8.70923 0.150678 8.95119 0.411622C9.19316 0.672566 9.32963 1.02664 9.33068 1.39624V6.56808C9.32963 6.93808 9.19329 7.2926 8.95144 7.55423C8.70958 7.81586 8.38186 7.96334 8.03984 7.96448Z" fill="#0B3F51"/>
<path d="M8.03984 6.79236C7.69919 6.7901 7.3731 6.6427 7.13222 6.38213C6.89134 6.12155 6.75509 5.76878 6.753 5.40027V6.56824C6.74325 6.75786 6.76935 6.94763 6.82972 7.12596C6.89008 7.30429 6.98344 7.46742 7.10407 7.60539C7.22471 7.74335 7.3701 7.85324 7.53134 7.92835C7.69258 8.00345 7.86629 8.04219 8.04184 8.04219C8.21739 8.04219 8.3911 8.00345 8.55235 7.92835C8.71359 7.85324 8.85897 7.74335 8.9796 7.60539C9.10024 7.46742 9.19359 7.30429 9.25396 7.12596C9.31432 6.94763 9.34044 6.75786 9.33069 6.56824V5.40027C9.32859 5.76952 9.19178 6.12293 8.95005 6.38363C8.70831 6.64433 8.38119 6.79123 8.03984 6.79236Z" fill="#093A47"/>
<path d="M22.6374 7.96448C22.2958 7.96334 21.9685 7.81571 21.7273 7.55396C21.486 7.29221 21.3506 6.93768 21.3506 6.56808V1.39624C21.3506 1.02703 21.4862 0.672952 21.7275 0.411885C21.9688 0.150818 22.2961 0.00415039 22.6374 0.00415039C22.9787 0.00415039 23.3061 0.150818 23.5474 0.411885C23.7887 0.672952 23.9243 1.02703 23.9243 1.39624V6.56808C23.9243 6.93768 23.7888 7.29221 23.5476 7.55396C23.3064 7.81571 22.9791 7.96334 22.6374 7.96448Z" fill="#0B3F51"/>
<path d="M22.6374 6.79236C22.2965 6.79122 21.9698 6.64419 21.7287 6.38337C21.4876 6.12255 21.3516 5.76912 21.3506 5.40027V6.56824C21.3506 6.93745 21.4862 7.29153 21.7275 7.5526C21.9688 7.81367 22.2961 7.96033 22.6374 7.96033C22.9787 7.96033 23.3061 7.81367 23.5474 7.5526C23.7887 7.29153 23.9243 6.93745 23.9243 6.56824V5.40027C23.9232 5.76912 23.7873 6.12255 23.5462 6.38337C23.3051 6.64419 22.9784 6.79122 22.6374 6.79236Z" fill="#093A47"/>
<path d="M5.03064 19.063V22.6177H4.42273V19.063H5.03064ZM6.14636 19.063V19.5513H3.31677V19.063H6.14636ZM7.63757 18.8677V22.6177H7.05164V18.8677H7.63757ZM7.53503 21.1992L7.3446 21.1968C7.34623 21.0145 7.37146 20.846 7.42029 20.6914C7.47074 20.5368 7.54073 20.4025 7.63025 20.2886C7.72139 20.173 7.83044 20.0843 7.9574 20.0225C8.08435 19.959 8.22514 19.9272 8.37976 19.9272C8.50997 19.9272 8.62716 19.9451 8.73132 19.981C8.83712 20.0168 8.92826 20.0745 9.00476 20.1543C9.08126 20.2324 9.13904 20.335 9.1781 20.4619C9.21879 20.5872 9.23914 20.7402 9.23914 20.9209V22.6177H8.64832V20.916C8.64832 20.7891 8.6296 20.6882 8.59216 20.6133C8.55636 20.5384 8.50346 20.4847 8.43347 20.4521C8.36348 20.418 8.27804 20.4009 8.17712 20.4009C8.07133 20.4009 7.97774 20.422 7.89636 20.4644C7.81661 20.5067 7.74988 20.5645 7.69617 20.6377C7.64246 20.7109 7.60177 20.7956 7.5741 20.8916C7.54806 20.9876 7.53503 21.0902 7.53503 21.1992ZM11.9242 21.9951V19.9761H12.515V22.6177H11.9584L11.9242 21.9951ZM12.0072 21.4458L12.205 21.4409C12.205 21.6183 12.1854 21.7819 12.1464 21.9316C12.1073 22.0798 12.0471 22.2091 11.9657 22.3198C11.8843 22.4289 11.7802 22.5143 11.6532 22.5762C11.5262 22.6364 11.3741 22.6665 11.1967 22.6665C11.0681 22.6665 10.9501 22.6478 10.8427 22.6104C10.7352 22.5729 10.6425 22.5151 10.5643 22.437C10.4878 22.3589 10.4284 22.2572 10.3861 22.1318C10.3438 22.0065 10.3226 21.8568 10.3226 21.6826V19.9761H10.911V21.6875C10.911 21.7835 10.9224 21.8641 10.9452 21.9292C10.968 21.9927 10.9989 22.0439 11.038 22.083C11.077 22.1221 11.1226 22.1497 11.1747 22.166C11.2268 22.1823 11.2821 22.1904 11.3407 22.1904C11.5083 22.1904 11.6402 22.1579 11.7362 22.0928C11.8339 22.026 11.903 21.9365 11.9437 21.8242C11.986 21.7119 12.0072 21.5858 12.0072 21.4458ZM14.2089 20.479V22.6177H13.6205V19.9761H14.182L14.2089 20.479ZM15.017 19.959L15.0121 20.5059C14.9763 20.4993 14.9372 20.4945 14.8949 20.4912C14.8542 20.488 14.8135 20.4863 14.7728 20.4863C14.6719 20.4863 14.5832 20.501 14.5067 20.5303C14.4302 20.5579 14.3659 20.5986 14.3138 20.6523C14.2634 20.7044 14.2243 20.7679 14.1967 20.8428C14.169 20.9176 14.1527 21.0015 14.1478 21.0942L14.0135 21.104C14.0135 20.938 14.0298 20.7842 14.0624 20.6426C14.0949 20.501 14.1438 20.3765 14.2089 20.269C14.2756 20.1616 14.3586 20.0778 14.4579 20.0176C14.5588 19.9574 14.6752 19.9272 14.807 19.9272C14.8428 19.9272 14.8811 19.9305 14.9218 19.937C14.9641 19.9435 14.9958 19.9508 15.017 19.959ZM17.3676 21.9023C17.3676 21.8438 17.3529 21.7909 17.3236 21.7437C17.2943 21.6948 17.2382 21.6509 17.1552 21.6118C17.0738 21.5728 16.9533 21.5369 16.7938 21.5044C16.6538 21.4735 16.5253 21.4368 16.4081 21.3945C16.2925 21.3506 16.1932 21.2977 16.1102 21.2358C16.0272 21.174 15.9629 21.1007 15.9174 21.0161C15.8718 20.9315 15.849 20.8338 15.849 20.7231C15.849 20.6157 15.8726 20.514 15.9198 20.418C15.967 20.3219 16.0345 20.2373 16.1224 20.1641C16.2103 20.0908 16.3169 20.033 16.4423 19.9907C16.5692 19.9484 16.7108 19.9272 16.8671 19.9272C17.0884 19.9272 17.278 19.9647 17.4359 20.0396C17.5954 20.1128 17.7175 20.2129 17.8021 20.3398C17.8868 20.4652 17.9291 20.6068 17.9291 20.7646H17.3407C17.3407 20.6947 17.3228 20.6296 17.287 20.5693C17.2528 20.5075 17.2007 20.4578 17.1307 20.4204C17.0608 20.3813 16.9729 20.3618 16.8671 20.3618C16.7662 20.3618 16.6823 20.3781 16.6156 20.4106C16.5505 20.4416 16.5017 20.4823 16.4691 20.5327C16.4382 20.5832 16.4227 20.6385 16.4227 20.6987C16.4227 20.7427 16.4309 20.7826 16.4471 20.8184C16.465 20.8525 16.4943 20.8843 16.535 20.9136C16.5757 20.9412 16.6311 20.9673 16.701 20.9917C16.7727 21.0161 16.8622 21.0397 16.9696 21.0625C17.1714 21.1048 17.3448 21.1593 17.4896 21.2261C17.6361 21.2912 17.7484 21.3758 17.8265 21.48C17.9047 21.5825 17.9437 21.7127 17.9437 21.8706C17.9437 21.9878 17.9185 22.0952 17.868 22.1929C17.8192 22.2889 17.7476 22.3727 17.6532 22.4443C17.5588 22.5143 17.4457 22.5688 17.3138 22.6079C17.1836 22.647 17.0372 22.6665 16.8744 22.6665C16.6351 22.6665 16.4325 22.6242 16.2665 22.5396C16.1005 22.4533 15.9743 22.3434 15.8881 22.21C15.8034 22.0749 15.7611 21.9349 15.7611 21.79H16.33C16.3365 21.8991 16.3666 21.9862 16.4203 22.0513C16.4756 22.1147 16.544 22.1611 16.6254 22.1904C16.7084 22.2181 16.7938 22.2319 16.8817 22.2319C16.9875 22.2319 17.0762 22.2181 17.1478 22.1904C17.2194 22.1611 17.274 22.1221 17.3114 22.0732C17.3488 22.0228 17.3676 21.9658 17.3676 21.9023ZM20.5702 22.0708V18.8677H21.161V22.6177H20.6263L20.5702 22.0708ZM18.8514 21.3262V21.2749C18.8514 21.0747 18.875 20.8924 18.9222 20.728C18.9694 20.562 19.0378 20.4196 19.1273 20.3008C19.2168 20.1803 19.3259 20.0884 19.4545 20.0249C19.583 19.9598 19.7279 19.9272 19.889 19.9272C20.0485 19.9272 20.1885 19.9582 20.309 20.02C20.4294 20.0819 20.5319 20.1706 20.6166 20.2861C20.7012 20.4001 20.7688 20.5368 20.8192 20.6963C20.8697 20.8542 20.9055 21.0299 20.9266 21.2236V21.3872C20.9055 21.576 20.8697 21.7485 20.8192 21.9048C20.7688 22.061 20.7012 22.1961 20.6166 22.3101C20.5319 22.424 20.4286 22.5119 20.3065 22.5737C20.1861 22.6356 20.0453 22.6665 19.8842 22.6665C19.7247 22.6665 19.5806 22.6331 19.452 22.5664C19.3251 22.4997 19.2168 22.4061 19.1273 22.2856C19.0378 22.1652 18.9694 22.0236 18.9222 21.8608C18.875 21.6965 18.8514 21.5182 18.8514 21.3262ZM19.4398 21.2749V21.3262C19.4398 21.4466 19.4504 21.5589 19.4716 21.6631C19.4943 21.7673 19.5293 21.8592 19.5765 21.939C19.6237 22.0171 19.6848 22.0789 19.7596 22.1245C19.8361 22.1685 19.9273 22.1904 20.0331 22.1904C20.1665 22.1904 20.2764 22.1611 20.3627 22.1025C20.4489 22.0439 20.5165 21.965 20.5653 21.8657C20.6158 21.7648 20.6499 21.6525 20.6678 21.5288V21.0869C20.6581 20.9909 20.6377 20.9014 20.6068 20.8184C20.5775 20.7354 20.5376 20.6629 20.4872 20.6011C20.4367 20.5376 20.3741 20.4888 20.2992 20.4546C20.226 20.4188 20.1389 20.4009 20.038 20.4009C19.9305 20.4009 19.8394 20.4237 19.7645 20.4692C19.6897 20.5148 19.6278 20.5775 19.579 20.6572C19.5318 20.737 19.4968 20.8298 19.474 20.9355C19.4512 21.0413 19.4398 21.1545 19.4398 21.2749ZM23.7655 22.0879V20.8281C23.7655 20.7337 23.7484 20.6523 23.7142 20.584C23.6801 20.5156 23.628 20.4627 23.558 20.4253C23.4896 20.3879 23.4034 20.3691 23.2992 20.3691C23.2032 20.3691 23.1202 20.3854 23.0502 20.418C22.9802 20.4505 22.9257 20.4945 22.8866 20.5498C22.8475 20.6051 22.828 20.6678 22.828 20.7378H22.2421C22.2421 20.6336 22.2673 20.5327 22.3177 20.4351C22.3682 20.3374 22.4414 20.2503 22.5375 20.1738C22.6335 20.0973 22.7483 20.0371 22.8817 19.9932C23.0152 19.9492 23.1649 19.9272 23.3309 19.9272C23.5295 19.9272 23.7053 19.9606 23.8583 20.0273C24.0129 20.0941 24.1342 20.195 24.222 20.3301C24.3116 20.4635 24.3563 20.6312 24.3563 20.833V22.0073C24.3563 22.1278 24.3645 22.236 24.3807 22.332C24.3986 22.4264 24.4239 22.5086 24.4564 22.5786V22.6177H23.8534C23.8257 22.5542 23.8038 22.4736 23.7875 22.376C23.7728 22.2767 23.7655 22.1807 23.7655 22.0879ZM23.851 21.0112L23.8558 21.375H23.4335C23.3244 21.375 23.2284 21.3856 23.1454 21.4067C23.0624 21.4263 22.9932 21.4556 22.9379 21.4946C22.8825 21.5337 22.841 21.5809 22.8134 21.6362C22.7857 21.6916 22.7719 21.7542 22.7719 21.8242C22.7719 21.8942 22.7881 21.9585 22.8207 22.0171C22.8532 22.0741 22.9004 22.1188 22.9623 22.1514C23.0258 22.1839 23.1023 22.2002 23.1918 22.2002C23.3122 22.2002 23.4172 22.1758 23.5067 22.127C23.5979 22.0765 23.6695 22.0155 23.7216 21.9438C23.7736 21.8706 23.8013 21.8014 23.8046 21.7363L23.995 21.9976C23.9755 22.0643 23.9421 22.1359 23.8949 22.2124C23.8477 22.2889 23.7858 22.3621 23.7094 22.4321C23.6345 22.5005 23.5441 22.5566 23.4384 22.6006C23.3342 22.6445 23.2137 22.6665 23.077 22.6665C22.9045 22.6665 22.7507 22.6323 22.6156 22.564C22.4805 22.494 22.3747 22.4004 22.2982 22.2832C22.2217 22.1644 22.1835 22.0301 22.1835 21.8804C22.1835 21.7404 22.2095 21.6167 22.2616 21.5093C22.3153 21.4002 22.3934 21.3091 22.496 21.2358C22.6001 21.1626 22.7271 21.1073 22.8768 21.0698C23.0266 21.0308 23.1975 21.0112 23.3895 21.0112H23.851ZM26.1991 22.3296L26.9169 19.9761H27.5468L26.4872 23.0205C26.4628 23.0856 26.431 23.1564 26.392 23.2329C26.3529 23.3094 26.3016 23.3818 26.2382 23.4502C26.1763 23.5202 26.099 23.5763 26.0062 23.6187C25.9135 23.6626 25.8011 23.6846 25.6693 23.6846C25.6172 23.6846 25.5668 23.6797 25.5179 23.6699C25.4707 23.6618 25.426 23.6528 25.3837 23.6431L25.3812 23.1938C25.3975 23.1955 25.417 23.1971 25.4398 23.1987C25.4642 23.2004 25.4838 23.2012 25.4984 23.2012C25.5961 23.2012 25.6774 23.189 25.7426 23.1646C25.8077 23.1418 25.8606 23.1043 25.9012 23.0522C25.9436 23.0002 25.9794 22.9302 26.0087 22.8423L26.1991 22.3296ZM25.7938 19.9761L26.4213 21.9536L26.5262 22.5737L26.1185 22.6787L25.1591 19.9761H25.7938Z" fill="black"/>
</g>
<defs>
<clipPath id="clip0_46_271">
<rect width="31" height="39" fill="white"/>
</clipPath>
</defs>
</svg>
