<svg width="31" height="38" viewBox="0 0 31 38" fill="none" xmlns="http://www.w3.org/2000/svg">
<g clip-path="url(#clip0_189_137)">
<path d="M26.4502 5.32056H4.5498C2.26585 5.32056 0.414337 7.27212 0.414337 9.67949V33.6452C0.414337 36.0526 2.26585 38.0042 4.5498 38.0042H26.4502C28.7341 38.0042 30.5857 36.0526 30.5857 33.6452V9.67949C30.5857 7.27212 28.7341 5.32056 26.4502 5.32056Z" fill="#E8E5D4"/>
<path d="M26.3785 2.02405H4.62151C2.29795 2.02405 0.414337 4.00945 0.414337 6.45857V30.2731C0.414337 32.7223 2.29795 34.7077 4.62151 34.7077H26.3785C28.702 34.7077 30.5857 32.7223 30.5857 30.2731V6.45857C30.5857 4.00945 28.702 2.02405 26.3785 2.02405Z" fill="#FCFBED"/>
<path d="M26.6773 1.88135H4.32272C1.93229 1.88135 0 3.77526 0 6.1059V11.4265H31V6.1059C31 3.77526 29.0638 1.88135 26.6773 1.88135Z" fill="#9636D1"/>
<path d="M24.7052 9.13569C25.8456 7.9336 25.8456 5.98463 24.7052 4.78255C23.5647 3.58046 21.7157 3.58047 20.5752 4.78255C19.4348 5.98464 19.4348 7.93359 20.5752 9.13567C21.7157 10.3378 23.5647 10.3378 24.7052 9.13569Z" fill="#2294AF"/>
<path d="M24.4622 6.95832C24.4622 7.34055 24.3546 7.7142 24.153 8.03195C23.9515 8.34971 23.665 8.5973 23.3299 8.74338C22.9948 8.88946 22.6261 8.92747 22.2705 8.8526C21.9149 8.77772 21.5883 8.59332 21.3322 8.32275C21.0761 8.05218 20.9018 7.70759 20.8315 7.3326C20.7613 6.95761 20.7981 6.56907 20.9375 6.21617C21.0768 5.86328 21.3123 5.56188 21.6142 5.35012C21.9161 5.13837 22.2708 5.02579 22.6335 5.02662C22.8741 5.02606 23.1125 5.07568 23.3348 5.17261C23.5572 5.26954 23.7592 5.41187 23.9291 5.59141C24.0991 5.77096 24.2337 5.98416 24.3252 6.21875C24.4167 6.45334 24.4632 6.70469 24.4622 6.95832Z" fill="#FCFBED"/>
<path d="M10.8843 7.66548C11.2537 6.01067 10.2804 4.35356 8.71044 3.96421C7.14046 3.57485 5.56829 4.6007 5.1989 6.25551C4.82951 7.91033 5.80278 9.56746 7.37275 9.95682C8.94273 10.3462 10.5149 9.3203 10.8843 7.66548Z" fill="#2294AF"/>
<path d="M9.8725 6.95832C9.8725 7.34038 9.765 7.71385 9.56363 8.03152C9.36225 8.34919 9.07604 8.59678 8.74116 8.74298C8.40628 8.88919 8.03779 8.92744 7.68229 8.85291C7.32678 8.77837 7.00023 8.5944 6.74393 8.32424C6.48762 8.05409 6.31308 7.70989 6.24237 7.33518C6.17165 6.96046 6.20795 6.57206 6.34666 6.21909C6.48537 5.86612 6.72027 5.56442 7.02165 5.35217C7.32303 5.13991 7.67737 5.02662 8.03984 5.02662C8.28066 5.02606 8.51921 5.07565 8.74179 5.17253C8.96438 5.26941 9.16661 5.41168 9.3369 5.59116C9.50718 5.77065 9.64215 5.98382 9.73406 6.21843C9.82598 6.45305 9.87303 6.70449 9.8725 6.95832Z" fill="#FCFBED"/>
<path d="M8.04383 0H8.03984C7.32913 0 6.75299 0.607278 6.75299 1.35639V6.40402C6.75299 7.15314 7.32913 7.76042 8.03984 7.76042H8.04383C8.75454 7.76042 9.33068 7.15314 9.33068 6.40402V1.35639C9.33068 0.607278 8.75454 0 8.04383 0Z" fill="#0B3F51"/>
<path d="M8.03984 6.61823C7.69887 6.61713 7.37215 6.47387 7.13105 6.21973C6.88994 5.9656 6.75402 5.62124 6.75297 5.26184V6.39987C6.74322 6.58462 6.76932 6.76953 6.82969 6.94328C6.89005 7.11704 6.98342 7.27599 7.10405 7.41042C7.22469 7.54484 7.37009 7.65192 7.53133 7.7251C7.69257 7.79828 7.86626 7.83602 8.04181 7.83602C8.21736 7.83602 8.39107 7.79828 8.55231 7.7251C8.71355 7.65192 8.85895 7.54484 8.97958 7.41042C9.10022 7.27599 9.19359 7.11704 9.25395 6.94328C9.31432 6.76953 9.34042 6.58462 9.33067 6.39987V5.26184C9.32857 5.62162 9.19175 5.96598 8.95002 6.21999C8.70828 6.47401 8.38118 6.61713 8.03984 6.61823Z" fill="#093A47"/>
<path d="M22.6374 7.76049C22.2958 7.75938 21.9685 7.61554 21.7273 7.3605C21.486 7.10546 21.3506 6.76002 21.3506 6.3999V1.36067C21.3506 1.00093 21.4862 0.655925 21.7275 0.401552C21.9688 0.147179 22.2961 0.00427246 22.6374 0.00427246C22.9787 0.00427246 23.3061 0.147179 23.5474 0.401552C23.7887 0.655925 23.9243 1.00093 23.9243 1.36067V6.3999C23.9243 6.76002 23.7889 7.10546 23.5476 7.3605C23.3064 7.61554 22.9791 7.75938 22.6374 7.76049Z" fill="#0B3F51"/>
<path d="M22.6374 6.61823C22.2965 6.61713 21.9698 6.47387 21.7287 6.21973C21.4876 5.9656 21.3516 5.62124 21.3506 5.26184V6.39987C21.3506 6.75961 21.4862 7.10461 21.7275 7.35898C21.9688 7.61336 22.2961 7.75626 22.6374 7.75626C22.9787 7.75626 23.3061 7.61336 23.5474 7.35898C23.7887 7.10461 23.9243 6.75961 23.9243 6.39987V5.26184C23.9232 5.62124 23.7873 5.9656 23.5462 6.21973C23.3051 6.47387 22.9784 6.61713 22.6374 6.61823Z" fill="#093A47"/>
<path d="M6.82373 19.4453V23H6.21582V19.4453H6.82373ZM7.93945 19.4453V19.9336H5.10986V19.4453H7.93945ZM10.2339 22.3774V20.3584H10.8247V23H10.2681L10.2339 22.3774ZM10.3169 21.8281L10.5146 21.8232C10.5146 22.0007 10.4951 22.1642 10.4561 22.314C10.417 22.4621 10.3568 22.5915 10.2754 22.7021C10.194 22.8112 10.0898 22.8966 9.96289 22.9585C9.83594 23.0187 9.68376 23.0488 9.50635 23.0488C9.37777 23.0488 9.25977 23.0301 9.15234 22.9927C9.04492 22.9552 8.95215 22.8975 8.87402 22.8193C8.79753 22.7412 8.73812 22.6395 8.6958 22.5142C8.65348 22.3888 8.63232 22.2391 8.63232 22.0649V20.3584H9.2207V22.0698C9.2207 22.1659 9.2321 22.2464 9.25488 22.3115C9.27767 22.375 9.30859 22.4263 9.34766 22.4653C9.38672 22.5044 9.43229 22.5321 9.48438 22.5483C9.53646 22.5646 9.5918 22.5728 9.65039 22.5728C9.81803 22.5728 9.94987 22.5402 10.0459 22.4751C10.1436 22.4084 10.2127 22.3188 10.2534 22.2065C10.2957 22.0942 10.3169 21.9681 10.3169 21.8281ZM13.0923 23.0488C12.897 23.0488 12.7204 23.0171 12.5625 22.9536C12.4062 22.8885 12.2728 22.7982 12.1621 22.6826C12.0531 22.5671 11.9692 22.4312 11.9106 22.2749C11.8521 22.1187 11.8228 21.9502 11.8228 21.7695V21.6719C11.8228 21.4652 11.8529 21.278 11.9131 21.1104C11.9733 20.9427 12.0571 20.7995 12.1646 20.6807C12.272 20.5602 12.3989 20.4683 12.5454 20.4048C12.6919 20.3413 12.8506 20.3096 13.0215 20.3096C13.2103 20.3096 13.3755 20.3413 13.5171 20.4048C13.6587 20.4683 13.7759 20.5578 13.8687 20.6733C13.9631 20.7873 14.033 20.9232 14.0786 21.0811C14.1258 21.2389 14.1494 21.4131 14.1494 21.6035V21.855H12.1084V21.4326H13.5684V21.3862C13.5651 21.2804 13.5439 21.1812 13.5049 21.0884C13.4674 20.9956 13.4097 20.9207 13.3315 20.8638C13.2534 20.8068 13.1493 20.7783 13.019 20.7783C12.9214 20.7783 12.8343 20.7995 12.7578 20.8418C12.6829 20.8825 12.6203 20.9419 12.5698 21.02C12.5194 21.0981 12.4803 21.1925 12.4526 21.3032C12.4266 21.4123 12.4136 21.5352 12.4136 21.6719V21.7695C12.4136 21.8851 12.429 21.9925 12.46 22.0918C12.4925 22.1895 12.5397 22.2749 12.6016 22.3481C12.6634 22.4214 12.7383 22.4792 12.8262 22.5215C12.9141 22.5622 13.0142 22.5825 13.1265 22.5825C13.2681 22.5825 13.3942 22.554 13.5049 22.4971C13.6156 22.4401 13.7116 22.3595 13.793 22.2554L14.103 22.5557C14.0461 22.6387 13.972 22.7184 13.8809 22.7949C13.7897 22.8698 13.6782 22.9308 13.5464 22.978C13.4162 23.0252 13.2648 23.0488 13.0923 23.0488ZM16.5903 22.2847C16.5903 22.2261 16.5757 22.1732 16.5464 22.126C16.5171 22.0771 16.4609 22.0332 16.3779 21.9941C16.2965 21.9551 16.1761 21.9193 16.0166 21.8867C15.8766 21.8558 15.748 21.8192 15.6309 21.7769C15.5153 21.7329 15.416 21.68 15.333 21.6182C15.25 21.5563 15.1857 21.4831 15.1401 21.3984C15.0946 21.3138 15.0718 21.2161 15.0718 21.1055C15.0718 20.998 15.0954 20.8963 15.1426 20.8003C15.1898 20.7043 15.2573 20.6196 15.3452 20.5464C15.4331 20.4731 15.5397 20.4154 15.665 20.373C15.792 20.3307 15.9336 20.3096 16.0898 20.3096C16.3112 20.3096 16.5008 20.347 16.6587 20.4219C16.8182 20.4951 16.9403 20.5952 17.0249 20.7222C17.1095 20.8475 17.1519 20.9891 17.1519 21.147H16.5635C16.5635 21.077 16.5456 21.0119 16.5098 20.9517C16.4756 20.8898 16.4235 20.8402 16.3535 20.8027C16.2835 20.7637 16.1956 20.7441 16.0898 20.7441C15.9889 20.7441 15.9051 20.7604 15.8384 20.793C15.7733 20.8239 15.7244 20.8646 15.6919 20.915C15.661 20.9655 15.6455 21.0208 15.6455 21.0811C15.6455 21.125 15.6536 21.1649 15.6699 21.2007C15.6878 21.2349 15.7171 21.2666 15.7578 21.2959C15.7985 21.3236 15.8538 21.3496 15.9238 21.374C15.9954 21.3984 16.085 21.422 16.1924 21.4448C16.3942 21.4871 16.5675 21.5417 16.7124 21.6084C16.8589 21.6735 16.9712 21.7581 17.0493 21.8623C17.1274 21.9648 17.1665 22.0951 17.1665 22.2529C17.1665 22.3701 17.1413 22.4775 17.0908 22.5752C17.042 22.6712 16.9704 22.755 16.876 22.8267C16.7816 22.8966 16.6685 22.9512 16.5366 22.9902C16.4064 23.0293 16.2599 23.0488 16.0972 23.0488C15.8579 23.0488 15.6553 23.0065 15.4893 22.9219C15.3232 22.8356 15.1971 22.7257 15.1108 22.5923C15.0262 22.4572 14.9839 22.3172 14.9839 22.1724H15.5527C15.5592 22.2814 15.5894 22.3685 15.6431 22.4336C15.6984 22.4971 15.7668 22.5435 15.8481 22.5728C15.9312 22.6004 16.0166 22.6143 16.1045 22.6143C16.2103 22.6143 16.299 22.6004 16.3706 22.5728C16.4422 22.5435 16.4967 22.5044 16.5342 22.4556C16.5716 22.4051 16.5903 22.3481 16.5903 22.2847ZM19.793 22.4531V19.25H20.3838V23H19.8491L19.793 22.4531ZM18.0742 21.7085V21.6572C18.0742 21.457 18.0978 21.2747 18.145 21.1104C18.1922 20.9443 18.2606 20.8019 18.3501 20.6831C18.4396 20.5627 18.5487 20.4707 18.6772 20.4072C18.8058 20.3421 18.9507 20.3096 19.1118 20.3096C19.2713 20.3096 19.4113 20.3405 19.5317 20.4023C19.6522 20.4642 19.7547 20.5529 19.8394 20.6685C19.924 20.7824 19.9915 20.9191 20.042 21.0786C20.0924 21.2365 20.1283 21.4123 20.1494 21.606V21.7695C20.1283 21.9583 20.0924 22.1309 20.042 22.2871C19.9915 22.4434 19.924 22.5785 19.8394 22.6924C19.7547 22.8063 19.6514 22.8942 19.5293 22.9561C19.4089 23.0179 19.2681 23.0488 19.1069 23.0488C18.9474 23.0488 18.8034 23.0155 18.6748 22.9487C18.5479 22.882 18.4396 22.7884 18.3501 22.668C18.2606 22.5475 18.1922 22.4059 18.145 22.2432C18.0978 22.0788 18.0742 21.9006 18.0742 21.7085ZM18.6626 21.6572V21.7085C18.6626 21.8289 18.6732 21.9412 18.6943 22.0454C18.7171 22.1496 18.7521 22.2415 18.7993 22.3213C18.8465 22.3994 18.9076 22.4613 18.9824 22.5068C19.0589 22.5508 19.1501 22.5728 19.2559 22.5728C19.3893 22.5728 19.4992 22.5435 19.5854 22.4849C19.6717 22.4263 19.7393 22.3473 19.7881 22.248C19.8385 22.1471 19.8727 22.0348 19.8906 21.9111V21.4692C19.8809 21.3732 19.8605 21.2837 19.8296 21.2007C19.8003 21.1177 19.7604 21.0452 19.71 20.9834C19.6595 20.9199 19.5968 20.8711 19.522 20.8369C19.4487 20.8011 19.3617 20.7832 19.2607 20.7832C19.1533 20.7832 19.0622 20.806 18.9873 20.8516C18.9124 20.8971 18.8506 20.9598 18.8018 21.0396C18.7546 21.1193 18.7196 21.2121 18.6968 21.3179C18.674 21.4237 18.6626 21.5368 18.6626 21.6572ZM22.9883 22.4702V21.2104C22.9883 21.116 22.9712 21.0347 22.937 20.9663C22.9028 20.8979 22.8507 20.8451 22.7808 20.8076C22.7124 20.7702 22.6261 20.7515 22.522 20.7515C22.4259 20.7515 22.3429 20.7677 22.2729 20.8003C22.203 20.8328 22.1484 20.8768 22.1094 20.9321C22.0703 20.9875 22.0508 21.0501 22.0508 21.1201H21.4648C21.4648 21.016 21.4901 20.915 21.5405 20.8174C21.591 20.7197 21.6642 20.6326 21.7603 20.5562C21.8563 20.4797 21.971 20.4194 22.1045 20.3755C22.238 20.3315 22.3877 20.3096 22.5537 20.3096C22.7523 20.3096 22.9281 20.3429 23.0811 20.4097C23.2357 20.4764 23.3569 20.5773 23.4448 20.7124C23.5343 20.8459 23.5791 21.0135 23.5791 21.2153V22.3896C23.5791 22.5101 23.5872 22.6183 23.6035 22.7144C23.6214 22.8088 23.6466 22.891 23.6792 22.9609V23H23.0762C23.0485 22.9365 23.0265 22.856 23.0103 22.7583C22.9956 22.659 22.9883 22.563 22.9883 22.4702ZM23.0737 21.3936L23.0786 21.7573H22.6562C22.5472 21.7573 22.4512 21.7679 22.3682 21.7891C22.2852 21.8086 22.216 21.8379 22.1606 21.877C22.1053 21.916 22.0638 21.9632 22.0361 22.0186C22.0085 22.0739 21.9946 22.1366 21.9946 22.2065C21.9946 22.2765 22.0109 22.3408 22.0435 22.3994C22.076 22.4564 22.1232 22.5011 22.1851 22.5337C22.2485 22.5662 22.325 22.5825 22.4146 22.5825C22.535 22.5825 22.64 22.5581 22.7295 22.5093C22.8206 22.4588 22.8923 22.3978 22.9443 22.3262C22.9964 22.2529 23.0241 22.1838 23.0273 22.1187L23.2178 22.3799C23.1982 22.4466 23.1649 22.5182 23.1177 22.5947C23.0705 22.6712 23.0086 22.7445 22.9321 22.8145C22.8573 22.8828 22.7669 22.939 22.6611 22.9829C22.557 23.0269 22.4365 23.0488 22.2998 23.0488C22.1273 23.0488 21.9735 23.0146 21.8384 22.9463C21.7033 22.8763 21.5975 22.7827 21.521 22.6655C21.4445 22.5467 21.4062 22.4124 21.4062 22.2627C21.4062 22.1227 21.4323 21.999 21.4844 21.8916C21.5381 21.7826 21.6162 21.6914 21.7188 21.6182C21.8229 21.5449 21.9499 21.4896 22.0996 21.4521C22.2493 21.4131 22.4202 21.3936 22.6123 21.3936H23.0737ZM25.4219 22.7119L26.1396 20.3584H26.7695L25.71 23.4028C25.6855 23.4679 25.6538 23.5387 25.6147 23.6152C25.5757 23.6917 25.5244 23.7642 25.4609 23.8325C25.3991 23.9025 25.3218 23.9587 25.229 24.001C25.1362 24.0449 25.0239 24.0669 24.8921 24.0669C24.84 24.0669 24.7896 24.062 24.7407 24.0522C24.6935 24.0441 24.6488 24.0352 24.6064 24.0254L24.604 23.5762C24.6203 23.5778 24.6398 23.5794 24.6626 23.5811C24.687 23.5827 24.7065 23.5835 24.7212 23.5835C24.8188 23.5835 24.9002 23.5713 24.9653 23.5469C25.0304 23.5241 25.0833 23.4867 25.124 23.4346C25.1663 23.3825 25.2021 23.3125 25.2314 23.2246L25.4219 22.7119ZM25.0166 20.3584L25.644 22.3359L25.749 22.9561L25.3413 23.061L24.3818 20.3584H25.0166Z" fill="#0B0B0B"/>
</g>
<defs>
<clipPath id="clip0_189_137">
<rect width="31" height="38" fill="white"/>
</clipPath>
</defs>
</svg>
