<svg width="31" height="38" viewBox="0 0 31 38" fill="none" xmlns="http://www.w3.org/2000/svg">
<g clip-path="url(#clip0_189_124)">
<path d="M26.4502 5.32056H4.5498C2.26585 5.32056 0.414337 7.27212 0.414337 9.67949V33.6452C0.414337 36.0526 2.26585 38.0042 4.5498 38.0042H26.4502C28.7341 38.0042 30.5857 36.0526 30.5857 33.6452V9.67949C30.5857 7.27212 28.7341 5.32056 26.4502 5.32056Z" fill="#E8E5D4"/>
<path d="M26.3785 2.02405H4.62151C2.29795 2.02405 0.414337 4.00945 0.414337 6.45857V30.2731C0.414337 32.7223 2.29795 34.7077 4.62151 34.7077H26.3785C28.702 34.7077 30.5857 32.7223 30.5857 30.2731V6.45857C30.5857 4.00945 28.702 2.02405 26.3785 2.02405Z" fill="#FCFBED"/>
<path d="M26.6773 1.88135H4.32272C1.93229 1.88135 0 3.77526 0 6.1059V11.4265H31V6.1059C31 3.77526 29.0638 1.88135 26.6773 1.88135Z" fill="#2BAED6"/>
<path d="M24.7052 9.13569C25.8456 7.9336 25.8456 5.98463 24.7052 4.78255C23.5647 3.58046 21.7157 3.58047 20.5752 4.78255C19.4348 5.98464 19.4348 7.93359 20.5752 9.13567C21.7157 10.3378 23.5647 10.3378 24.7052 9.13569Z" fill="#2294AF"/>
<path d="M24.4622 6.95832C24.4622 7.34055 24.3546 7.7142 24.153 8.03195C23.9515 8.34971 23.665 8.5973 23.3299 8.74338C22.9948 8.88946 22.6261 8.92747 22.2705 8.8526C21.9149 8.77772 21.5883 8.59332 21.3322 8.32275C21.0761 8.05218 20.9018 7.70759 20.8315 7.3326C20.7613 6.95761 20.7981 6.56907 20.9375 6.21617C21.0768 5.86328 21.3123 5.56188 21.6142 5.35012C21.9161 5.13837 22.2708 5.02579 22.6335 5.02662C22.8741 5.02606 23.1125 5.07568 23.3348 5.17261C23.5572 5.26954 23.7592 5.41187 23.9291 5.59141C24.0991 5.77096 24.2337 5.98416 24.3252 6.21875C24.4167 6.45334 24.4632 6.70469 24.4622 6.95832Z" fill="#FCFBED"/>
<path d="M10.8843 7.66548C11.2537 6.01067 10.2804 4.35356 8.71044 3.96421C7.14046 3.57485 5.56829 4.6007 5.1989 6.25551C4.82951 7.91033 5.80278 9.56746 7.37275 9.95682C8.94273 10.3462 10.5149 9.3203 10.8843 7.66548Z" fill="#2294AF"/>
<path d="M9.8725 6.95832C9.8725 7.34038 9.765 7.71385 9.56363 8.03152C9.36225 8.34919 9.07604 8.59678 8.74116 8.74298C8.40628 8.88919 8.03779 8.92744 7.68229 8.85291C7.32678 8.77837 7.00023 8.5944 6.74393 8.32424C6.48762 8.05409 6.31308 7.70989 6.24237 7.33518C6.17165 6.96046 6.20795 6.57206 6.34666 6.21909C6.48537 5.86612 6.72027 5.56442 7.02165 5.35217C7.32303 5.13991 7.67737 5.02662 8.03984 5.02662C8.28066 5.02606 8.51921 5.07565 8.74179 5.17253C8.96438 5.26941 9.16661 5.41168 9.3369 5.59116C9.50718 5.77065 9.64215 5.98382 9.73406 6.21843C9.82598 6.45305 9.87303 6.70449 9.8725 6.95832Z" fill="#FCFBED"/>
<path d="M8.04383 0H8.03984C7.32913 0 6.75299 0.607278 6.75299 1.35639V6.40402C6.75299 7.15314 7.32913 7.76042 8.03984 7.76042H8.04383C8.75454 7.76042 9.33068 7.15314 9.33068 6.40402V1.35639C9.33068 0.607278 8.75454 0 8.04383 0Z" fill="#0B3F51"/>
<path d="M8.03984 6.61823C7.69887 6.61713 7.37215 6.47387 7.13105 6.21973C6.88994 5.9656 6.75402 5.62124 6.75297 5.26184V6.39987C6.74322 6.58462 6.76932 6.76953 6.82969 6.94328C6.89005 7.11704 6.98342 7.27599 7.10405 7.41042C7.22469 7.54484 7.37009 7.65192 7.53133 7.7251C7.69257 7.79828 7.86626 7.83602 8.04181 7.83602C8.21736 7.83602 8.39107 7.79828 8.55231 7.7251C8.71355 7.65192 8.85895 7.54484 8.97958 7.41042C9.10022 7.27599 9.19359 7.11704 9.25395 6.94328C9.31432 6.76953 9.34042 6.58462 9.33067 6.39987V5.26184C9.32857 5.62162 9.19175 5.96598 8.95002 6.21999C8.70828 6.47401 8.38118 6.61713 8.03984 6.61823Z" fill="#093A47"/>
<path d="M22.6374 7.76049C22.2958 7.75938 21.9685 7.61554 21.7273 7.3605C21.486 7.10546 21.3506 6.76002 21.3506 6.3999V1.36067C21.3506 1.00093 21.4862 0.655925 21.7275 0.401552C21.9688 0.147179 22.2961 0.00427246 22.6374 0.00427246C22.9787 0.00427246 23.3061 0.147179 23.5474 0.401552C23.7887 0.655925 23.9243 1.00093 23.9243 1.36067V6.3999C23.9243 6.76002 23.7889 7.10546 23.5476 7.3605C23.3064 7.61554 22.9791 7.75938 22.6374 7.76049Z" fill="#0B3F51"/>
<path d="M22.6374 6.61823C22.2965 6.61713 21.9698 6.47387 21.7287 6.21973C21.4876 5.9656 21.3516 5.62124 21.3506 5.26184V6.39987C21.3506 6.75961 21.4862 7.10461 21.7275 7.35898C21.9688 7.61336 22.2961 7.75626 22.6374 7.75626C22.9787 7.75626 23.3061 7.61336 23.5474 7.35898C23.7887 7.10461 23.9243 6.75961 23.9243 6.39987V5.26184C23.9232 5.62124 23.7873 5.9656 23.5462 6.21973C23.3051 6.47387 22.9784 6.61713 22.6374 6.61823Z" fill="#093A47"/>
<path d="M4.00195 21.3613L4.56836 19.1562H4.86523L4.83203 19.7246L4.22656 22H3.91797L4.00195 21.3613ZM3.57812 19.1562L4.03711 21.3438L4.07812 22H3.75L3.0918 19.1562H3.57812ZM5.50781 21.3379L5.96094 19.1562H6.44922L5.79102 22H5.46289L5.50781 21.3379ZM4.98047 19.1562L5.54102 21.3672L5.62305 22H5.31445L4.71875 19.7246L4.6875 19.1562H4.98047ZM8.13477 22.0391C7.97852 22.0391 7.83724 22.0137 7.71094 21.9629C7.58594 21.9108 7.47917 21.8385 7.39062 21.7461C7.30339 21.6536 7.23633 21.5449 7.18945 21.4199C7.14258 21.2949 7.11914 21.1602 7.11914 21.0156V20.9375C7.11914 20.7721 7.14323 20.6224 7.19141 20.4883C7.23958 20.3542 7.30664 20.2396 7.39258 20.1445C7.47852 20.0482 7.58008 19.9746 7.69727 19.9238C7.81445 19.873 7.94141 19.8477 8.07812 19.8477C8.22917 19.8477 8.36133 19.873 8.47461 19.9238C8.58789 19.9746 8.68164 20.0462 8.75586 20.1387C8.83138 20.2298 8.88737 20.3385 8.92383 20.4648C8.96159 20.5911 8.98047 20.7305 8.98047 20.8828V21.084H7.34766V20.7461H8.51562V20.709C8.51302 20.6243 8.49609 20.5449 8.46484 20.4707C8.4349 20.3965 8.38867 20.3366 8.32617 20.291C8.26367 20.2454 8.18034 20.2227 8.07617 20.2227C7.99805 20.2227 7.92839 20.2396 7.86719 20.2734C7.80729 20.306 7.75716 20.3535 7.7168 20.416C7.67643 20.4785 7.64518 20.554 7.62305 20.6426C7.60221 20.7298 7.5918 20.8281 7.5918 20.9375V21.0156C7.5918 21.1081 7.60417 21.194 7.62891 21.2734C7.65495 21.3516 7.69271 21.4199 7.74219 21.4785C7.79167 21.5371 7.85156 21.5833 7.92188 21.6172C7.99219 21.6497 8.07227 21.666 8.16211 21.666C8.27539 21.666 8.3763 21.6432 8.46484 21.5977C8.55339 21.5521 8.63021 21.4876 8.69531 21.4043L8.94336 21.6445C8.89779 21.7109 8.83854 21.7747 8.76562 21.8359C8.69271 21.8958 8.60352 21.9447 8.49805 21.9824C8.39388 22.0202 8.27279 22.0391 8.13477 22.0391ZM11.1367 21.5625V19H11.6094V22H11.1816L11.1367 21.5625ZM9.76172 20.9668V20.9258C9.76172 20.7656 9.7806 20.6198 9.81836 20.4883C9.85612 20.3555 9.91081 20.2415 9.98242 20.1465C10.054 20.0501 10.1413 19.9766 10.2441 19.9258C10.347 19.8737 10.4629 19.8477 10.5918 19.8477C10.7194 19.8477 10.8314 19.8724 10.9277 19.9219C11.0241 19.9714 11.1061 20.0423 11.1738 20.1348C11.2415 20.2259 11.2956 20.3353 11.3359 20.4629C11.3763 20.5892 11.4049 20.7298 11.4219 20.8848V21.0156C11.4049 21.1667 11.3763 21.3047 11.3359 21.4297C11.2956 21.5547 11.2415 21.6628 11.1738 21.7539C11.1061 21.8451 11.0234 21.9154 10.9258 21.9648C10.8294 22.0143 10.7168 22.0391 10.5879 22.0391C10.4603 22.0391 10.3451 22.0124 10.2422 21.959C10.1406 21.9056 10.054 21.8307 9.98242 21.7344C9.91081 21.638 9.85612 21.5247 9.81836 21.3945C9.7806 21.263 9.76172 21.1204 9.76172 20.9668ZM10.2324 20.9258V20.9668C10.2324 21.0632 10.2409 21.153 10.2578 21.2363C10.276 21.3197 10.304 21.3932 10.3418 21.457C10.3796 21.5195 10.4284 21.569 10.4883 21.6055C10.5495 21.6406 10.6224 21.6582 10.707 21.6582C10.8138 21.6582 10.9017 21.6348 10.9707 21.5879C11.0397 21.541 11.0938 21.4779 11.1328 21.3984C11.1732 21.3177 11.2005 21.2279 11.2148 21.1289V20.7754C11.207 20.6986 11.1908 20.627 11.166 20.5605C11.1426 20.4941 11.1107 20.4362 11.0703 20.3867C11.0299 20.3359 10.9798 20.2969 10.9199 20.2695C10.8613 20.2409 10.7917 20.2266 10.7109 20.2266C10.625 20.2266 10.5521 20.2448 10.4922 20.2812C10.4323 20.3177 10.3828 20.3678 10.3438 20.4316C10.306 20.4954 10.278 20.5697 10.2598 20.6543C10.2415 20.7389 10.2324 20.8294 10.2324 20.9258ZM13.0684 20.3379V22H12.5977V19.8867H13.041L13.0684 20.3379ZM12.9844 20.8652L12.832 20.8633C12.8333 20.7135 12.8542 20.5762 12.8945 20.4512C12.9362 20.3262 12.9935 20.2188 13.0664 20.1289C13.1406 20.0391 13.2292 19.9701 13.332 19.9219C13.4349 19.8724 13.5495 19.8477 13.6758 19.8477C13.7773 19.8477 13.8691 19.862 13.9512 19.8906C14.0345 19.918 14.1055 19.9629 14.1641 20.0254C14.224 20.0879 14.2695 20.1693 14.3008 20.2695C14.332 20.3685 14.3477 20.4902 14.3477 20.6348V22H13.875V20.6328C13.875 20.5312 13.86 20.4512 13.8301 20.3926C13.8014 20.3327 13.7591 20.2904 13.7031 20.2656C13.6484 20.2396 13.5801 20.2266 13.498 20.2266C13.4173 20.2266 13.3451 20.2435 13.2812 20.2773C13.2174 20.3112 13.1634 20.3574 13.1191 20.416C13.0762 20.4746 13.043 20.5423 13.0195 20.6191C12.9961 20.696 12.9844 20.778 12.9844 20.8652ZM16.2598 22.0391C16.1035 22.0391 15.9622 22.0137 15.8359 21.9629C15.7109 21.9108 15.6042 21.8385 15.5156 21.7461C15.4284 21.6536 15.3613 21.5449 15.3145 21.4199C15.2676 21.2949 15.2441 21.1602 15.2441 21.0156V20.9375C15.2441 20.7721 15.2682 20.6224 15.3164 20.4883C15.3646 20.3542 15.4316 20.2396 15.5176 20.1445C15.6035 20.0482 15.7051 19.9746 15.8223 19.9238C15.9395 19.873 16.0664 19.8477 16.2031 19.8477C16.3542 19.8477 16.4863 19.873 16.5996 19.9238C16.7129 19.9746 16.8066 20.0462 16.8809 20.1387C16.9564 20.2298 17.0124 20.3385 17.0488 20.4648C17.0866 20.5911 17.1055 20.7305 17.1055 20.8828V21.084H15.4727V20.7461H16.6406V20.709C16.638 20.6243 16.6211 20.5449 16.5898 20.4707C16.5599 20.3965 16.5137 20.3366 16.4512 20.291C16.3887 20.2454 16.3053 20.2227 16.2012 20.2227C16.123 20.2227 16.0534 20.2396 15.9922 20.2734C15.9323 20.306 15.8822 20.3535 15.8418 20.416C15.8014 20.4785 15.7702 20.554 15.748 20.6426C15.7272 20.7298 15.7168 20.8281 15.7168 20.9375V21.0156C15.7168 21.1081 15.7292 21.194 15.7539 21.2734C15.7799 21.3516 15.8177 21.4199 15.8672 21.4785C15.9167 21.5371 15.9766 21.5833 16.0469 21.6172C16.1172 21.6497 16.1973 21.666 16.2871 21.666C16.4004 21.666 16.5013 21.6432 16.5898 21.5977C16.6784 21.5521 16.7552 21.4876 16.8203 21.4043L17.0684 21.6445C17.0228 21.7109 16.9635 21.7747 16.8906 21.8359C16.8177 21.8958 16.7285 21.9447 16.623 21.9824C16.5189 22.0202 16.3978 22.0391 16.2598 22.0391ZM19.1582 21.4277C19.1582 21.3809 19.1465 21.3385 19.123 21.3008C19.0996 21.2617 19.0547 21.2266 18.9883 21.1953C18.9232 21.1641 18.8268 21.1354 18.6992 21.1094C18.5872 21.0846 18.4844 21.0553 18.3906 21.0215C18.2982 20.9863 18.2188 20.944 18.1523 20.8945C18.0859 20.8451 18.0345 20.7865 17.998 20.7188C17.9616 20.651 17.9434 20.5729 17.9434 20.4844C17.9434 20.3984 17.9622 20.3171 18 20.2402C18.0378 20.1634 18.0918 20.0957 18.1621 20.0371C18.2324 19.9785 18.3177 19.9323 18.418 19.8984C18.5195 19.8646 18.6328 19.8477 18.7578 19.8477C18.9349 19.8477 19.0866 19.8776 19.2129 19.9375C19.3405 19.9961 19.4382 20.0762 19.5059 20.1777C19.5736 20.278 19.6074 20.3913 19.6074 20.5176H19.1367C19.1367 20.4616 19.1224 20.4095 19.0938 20.3613C19.0664 20.3118 19.0247 20.2721 18.9688 20.2422C18.9128 20.2109 18.8424 20.1953 18.7578 20.1953C18.6771 20.1953 18.61 20.2083 18.5566 20.2344C18.5046 20.2591 18.4655 20.2917 18.4395 20.332C18.4147 20.3724 18.4023 20.4167 18.4023 20.4648C18.4023 20.5 18.4089 20.5319 18.4219 20.5605C18.4362 20.5879 18.4596 20.6133 18.4922 20.6367C18.5247 20.6589 18.569 20.6797 18.625 20.6992C18.6823 20.7188 18.7539 20.7376 18.8398 20.7559C19.0013 20.7897 19.14 20.8333 19.2559 20.8867C19.373 20.9388 19.4629 21.0065 19.5254 21.0898C19.5879 21.1719 19.6191 21.276 19.6191 21.4023C19.6191 21.4961 19.599 21.582 19.5586 21.6602C19.5195 21.737 19.4622 21.804 19.3867 21.8613C19.3112 21.9173 19.2207 21.9609 19.1152 21.9922C19.0111 22.0234 18.8939 22.0391 18.7637 22.0391C18.5723 22.0391 18.4102 22.0052 18.2773 21.9375C18.1445 21.8685 18.0436 21.7806 17.9746 21.6738C17.9069 21.5658 17.873 21.4538 17.873 21.3379H18.3281C18.3333 21.4251 18.3574 21.4948 18.4004 21.5469C18.4447 21.5977 18.4993 21.6348 18.5645 21.6582C18.6309 21.6803 18.6992 21.6914 18.7695 21.6914C18.8542 21.6914 18.9251 21.6803 18.9824 21.6582C19.0397 21.6348 19.0833 21.6035 19.1133 21.5645C19.1432 21.5241 19.1582 21.4785 19.1582 21.4277ZM21.8203 21.5625V19H22.293V22H21.8652L21.8203 21.5625ZM20.4453 20.9668V20.9258C20.4453 20.7656 20.4642 20.6198 20.502 20.4883C20.5397 20.3555 20.5944 20.2415 20.666 20.1465C20.7376 20.0501 20.8249 19.9766 20.9277 19.9258C21.0306 19.8737 21.1465 19.8477 21.2754 19.8477C21.403 19.8477 21.515 19.8724 21.6113 19.9219C21.7077 19.9714 21.7897 20.0423 21.8574 20.1348C21.9251 20.2259 21.9792 20.3353 22.0195 20.4629C22.0599 20.5892 22.0885 20.7298 22.1055 20.8848V21.0156C22.0885 21.1667 22.0599 21.3047 22.0195 21.4297C21.9792 21.5547 21.9251 21.6628 21.8574 21.7539C21.7897 21.8451 21.707 21.9154 21.6094 21.9648C21.513 22.0143 21.4004 22.0391 21.2715 22.0391C21.1439 22.0391 21.0286 22.0124 20.9258 21.959C20.8242 21.9056 20.7376 21.8307 20.666 21.7344C20.5944 21.638 20.5397 21.5247 20.502 21.3945C20.4642 21.263 20.4453 21.1204 20.4453 20.9668ZM20.916 20.9258V20.9668C20.916 21.0632 20.9245 21.153 20.9414 21.2363C20.9596 21.3197 20.9876 21.3932 21.0254 21.457C21.0632 21.5195 21.112 21.569 21.1719 21.6055C21.2331 21.6406 21.306 21.6582 21.3906 21.6582C21.4974 21.6582 21.5853 21.6348 21.6543 21.5879C21.7233 21.541 21.7773 21.4779 21.8164 21.3984C21.8568 21.3177 21.8841 21.2279 21.8984 21.1289V20.7754C21.8906 20.6986 21.8743 20.627 21.8496 20.5605C21.8262 20.4941 21.7943 20.4362 21.7539 20.3867C21.7135 20.3359 21.6634 20.2969 21.6035 20.2695C21.5449 20.2409 21.4753 20.2266 21.3945 20.2266C21.3086 20.2266 21.2357 20.2448 21.1758 20.2812C21.1159 20.3177 21.0664 20.3678 21.0273 20.4316C20.9896 20.4954 20.9616 20.5697 20.9434 20.6543C20.9251 20.7389 20.916 20.8294 20.916 20.9258ZM24.4766 21.5762V20.5684C24.4766 20.4928 24.4629 20.4277 24.4355 20.373C24.4082 20.3184 24.3665 20.276 24.3105 20.2461C24.2559 20.2161 24.1868 20.2012 24.1035 20.2012C24.0267 20.2012 23.9603 20.2142 23.9043 20.2402C23.8483 20.2663 23.8047 20.3014 23.7734 20.3457C23.7422 20.39 23.7266 20.4401 23.7266 20.4961H23.2578C23.2578 20.4128 23.278 20.332 23.3184 20.2539C23.3587 20.1758 23.4173 20.1061 23.4941 20.0449C23.571 19.9837 23.6628 19.9355 23.7695 19.9004C23.8763 19.8652 23.9961 19.8477 24.1289 19.8477C24.2878 19.8477 24.4284 19.8743 24.5508 19.9277C24.6745 19.9811 24.7715 20.0618 24.8418 20.1699C24.9134 20.2767 24.9492 20.4108 24.9492 20.5723V21.5117C24.9492 21.6081 24.9557 21.6947 24.9688 21.7715C24.9831 21.847 25.0033 21.9128 25.0293 21.9688V22H24.5469C24.5247 21.9492 24.5072 21.8848 24.4941 21.8066C24.4824 21.7272 24.4766 21.6504 24.4766 21.5762ZM24.5449 20.7148L24.5488 21.0059H24.2109C24.1237 21.0059 24.0469 21.0143 23.9805 21.0312C23.9141 21.0469 23.8587 21.0703 23.8145 21.1016C23.7702 21.1328 23.737 21.1706 23.7148 21.2148C23.6927 21.2591 23.6816 21.3092 23.6816 21.3652C23.6816 21.4212 23.6947 21.4727 23.7207 21.5195C23.7467 21.5651 23.7845 21.6009 23.834 21.627C23.8848 21.653 23.946 21.666 24.0176 21.666C24.1139 21.666 24.1979 21.6465 24.2695 21.6074C24.3424 21.5671 24.3997 21.5182 24.4414 21.4609C24.4831 21.4023 24.5052 21.347 24.5078 21.2949L24.6602 21.5039C24.6445 21.5573 24.6178 21.6146 24.5801 21.6758C24.5423 21.737 24.4928 21.7956 24.4316 21.8516C24.3717 21.9062 24.2995 21.9512 24.2148 21.9863C24.1315 22.0215 24.0352 22.0391 23.9258 22.0391C23.7878 22.0391 23.6647 22.0117 23.5566 21.957C23.4486 21.901 23.3639 21.8262 23.3027 21.7324C23.2415 21.6374 23.2109 21.5299 23.2109 21.4102C23.2109 21.2982 23.2318 21.1992 23.2734 21.1133C23.3164 21.026 23.3789 20.9531 23.4609 20.8945C23.5443 20.8359 23.6458 20.7917 23.7656 20.7617C23.8854 20.7305 24.0221 20.7148 24.1758 20.7148H24.5449ZM26.5234 21.7695L27.0977 19.8867H27.6016L26.7539 22.3223C26.7344 22.3743 26.709 22.431 26.6777 22.4922C26.6465 22.5534 26.6055 22.6113 26.5547 22.666C26.5052 22.722 26.4434 22.7669 26.3691 22.8008C26.2949 22.8359 26.2051 22.8535 26.0996 22.8535C26.0579 22.8535 26.0176 22.8496 25.9785 22.8418C25.9408 22.8353 25.9049 22.8281 25.8711 22.8203L25.8691 22.4609C25.8822 22.4622 25.8978 22.4635 25.916 22.4648C25.9355 22.4661 25.9512 22.4668 25.9629 22.4668C26.041 22.4668 26.1061 22.457 26.1582 22.4375C26.2103 22.4193 26.2526 22.3893 26.2852 22.3477C26.319 22.306 26.3477 22.25 26.3711 22.1797L26.5234 21.7695ZM26.1992 19.8867L26.7012 21.4688L26.7852 21.9648L26.459 22.0488L25.6914 19.8867H26.1992Z" fill="black"/>
</g>
<defs>
<clipPath id="clip0_189_124">
<rect width="31" height="38" fill="white"/>
</clipPath>
</defs>
</svg>
